<?xml version="1.0" encoding="utf-8"?>
<!-- Generator: Adobe Illustrator 16.0.0, SVG Export Plug-In . SVG Version: 6.00 Build 0)  -->
<!DOCTYPE svg PUBLIC "-//W3C//DTD SVG 1.1//EN" "http://www.w3.org/Graphics/SVG/1.1/DTD/svg11.dtd">
<svg version="1.1" id="Layer_1" xmlns="http://www.w3.org/2000/svg" xmlns:xlink="http://www.w3.org/1999/xlink" x="0px" y="0px"
	 width="792px" height="1224px" viewBox="0 0 792 1224" enable-background="new 0 0 792 1224" xml:space="preserve">
<g>
	<g>
		<path fill-rule="evenodd" clip-rule="evenodd" d="M438.546,270.897c1.794,0,3.588,0,5.382,0
			c-0.616,15.98-17.2,15.993-14.802,34.987c-4.13,5.739-9.797,9.939-14.803,14.802C417.644,304.714,431.002,287.132,438.546,270.897
			z"/>
		<path fill-rule="evenodd" clip-rule="evenodd" d="M491.026,280.317c-1.317,4.962-5.893,6.666-8.074,10.765
			C481.05,288.214,486.536,281.261,491.026,280.317z"/>
		<path fill-rule="evenodd" clip-rule="evenodd" d="M403.558,283.009c5.584,1.147,6.735,12.38,4.037,17.493
			c-3.369-4.704-4.833-11.314-8.073-16.148C401.431,284.47,403.332,284.577,403.558,283.009z"/>
		<path fill-rule="evenodd" clip-rule="evenodd" d="M388.756,289.737c3.12-0.429,5.166,0.216,6.729,1.346
			c-0.681,5.15-1.221,10.442-6.729,10.765c-0.037-1.309-1.647-1.044-2.691-1.346C386.396,296.348,387.429,292.896,388.756,289.737z"
			/>
		<path fill-rule="evenodd" clip-rule="evenodd" d="M516.594,291.083c2.122,2.416,4.081,27.189-2.69,29.604
			C513.065,309.084,515.741,300.995,516.594,291.083z"/>
		<path fill-rule="evenodd" clip-rule="evenodd" d="M360.497,299.157c11.956,2.631,7.087,19.45,4.037,28.259
			c4.42-6.794,11.037-11.39,17.493-16.148c-0.87,6.524-3.75,17.706-6.729,24.222c8.199-4.737,17.447-4.591,26.914-5.382
			c-8.81,12.574-31.923,3.666-40.37,17.494c-3.165-5.014,7.252-7.958,8.074-13.457c-11.476,1.171-28.827,5.444-39.024,9.419
			c-4.28-7.46,6.785-11.126,8.073-17.494c4.03,0.885-1.286,2.876,0,5.383c9.816-1.397,13.342-9.086,16.148-17.494
			c5.481,5.805-1.312,14.594-5.383,18.839C368.521,331.203,359.561,310.095,360.497,299.157z"/>
		<path fill-rule="evenodd" clip-rule="evenodd" d="M348.386,303.193c3.379,2.176-2.39,6.476-2.691,9.42
			c-3.317,0.177-6.483,0.204-8.074-1.346C337.751,305.118,345.52,306.607,348.386,303.193z"/>
		<path fill-rule="evenodd" clip-rule="evenodd" d="M330.893,311.268c3.607,9.96,6.188,22.368-5.383,25.567
			c4.036-8.441,2.427-18.094-5.383-21.53C322.41,312.653,326.385,311.694,330.893,311.268z"/>
		<path fill-rule="evenodd" clip-rule="evenodd" d="M538.125,311.268c2.156,6.593-9.884,28.234-22.877,24.222
			c0.108-5.275,2.372-8.393,4.037-12.111c3.116,1.513-1.901,5.215,2.691,6.729C531.352,327.819,533.651,318.457,538.125,311.268z"/>
		<path fill-rule="evenodd" clip-rule="evenodd" d="M439.892,315.305c-30.145,8.431-34.824,42.327-71.32,44.407
			c-0.886-4.922,2.911-5.162,2.691-9.419c10.742-1.817,24.371-0.748,29.604-8.074c-4.611-1.875-12.174,4.839-21.531,2.691
			c6.571-6.976,15.108-4.157,22.877-8.074C416.032,329.866,424.286,309.463,439.892,315.305z"/>
		<path fill-rule="evenodd" clip-rule="evenodd" d="M462.768,347.601c-4.872-2.58-7.965,8.147-16.148,6.729
			c-2.634-2.515-0.415-4.929,0-8.074c18.621-6.499,28.712-21.526,41.716-33.642c-0.594,10.172-6.381,15.149-10.766,21.531
			c0.886,4.03,2.877-1.287,5.383,0c-5.953,8.4-11.516,17.191-24.222,18.839C458.502,349.615,460.798,348.771,462.768,347.601z
			 M465.459,342.218c-5.064,5.58,11.582-5.736,10.765-12.111C474.691,334.918,465.954,341.673,465.459,342.218z"/>
		<path fill-rule="evenodd" clip-rule="evenodd" d="M286.485,326.07c1.346,0,2.691,0,4.037,0
			c0.938,17.452-1.565,30.367-17.494,33.642c-7.979-10.914,3.845-19.842,12.111-22.876
			C285.3,332.959,284.404,328.026,286.485,326.07z"/>
		<path fill-rule="evenodd" clip-rule="evenodd" d="M435.854,332.798c0.851,6.259-8.858,13.55-18.84,13.457
			C419.811,338.285,429.996,337.706,435.854,332.798z"/>
		<path fill-rule="evenodd" clip-rule="evenodd" d="M419.706,334.144c2.216,6.286-7.041,12.67-13.457,14.802
			C405.499,338.776,415.011,338.868,419.706,334.144z"/>
		<path fill-rule="evenodd" clip-rule="evenodd" d="M515.248,383.934c-0.75-11.516,5.489-16.042,8.074-24.222
			c-2.806-4.008-5.481,3.383-9.419,2.691c8.945-11.688,21.394-19.873,34.986-26.914c-6.795,14.735-20.937,22.124-28.259,36.333
			C520.745,377.768,520.892,383.746,515.248,383.934z"/>
		<path fill-rule="evenodd" clip-rule="evenodd" d="M449.311,336.835c0.521,4.592-6.743,12.968-12.11,16.148
			C437.065,343.429,443.999,340.943,449.311,336.835z"/>
		<path fill-rule="evenodd" clip-rule="evenodd" d="M325.51,340.872c-0.404,5.428-1.986,9.677-8.074,9.42
			C316.165,343.463,321.007,337.685,325.51,340.872z"/>
		<path fill-rule="evenodd" clip-rule="evenodd" d="M489.681,339.526c-0.259,4.675-4.76,5.109-5.383,9.42
			c-0.411,2.733,3.888-0.275,4.037-1.346c-1.173,6.471-12.859,14.04-21.53,17.494C471.131,353.272,479.996,345.99,489.681,339.526z"
			/>
		<path fill-rule="evenodd" clip-rule="evenodd" d="M356.46,340.872c2.289-0.495,2.539,1.05,2.691,2.691
			c-21.693,12.845-39.481,29.596-57.863,45.753c2.417-14.941,26.146-18.391,26.913-36.333
			C337.104,348.429,350.948,348.817,356.46,340.872z"/>
		<path fill-rule="evenodd" clip-rule="evenodd" d="M437.2,340.872c5.374,2.144-9.363,10.721-2.691,18.839
			c-20.543-1.424-6.498,24.054-24.223,24.222C413.466,363.928,422.994,352.336,437.2,340.872z"/>
		<path fill-rule="evenodd" clip-rule="evenodd" d="M340.312,343.563c-4.615,6.15-14.927,6.604-20.185,12.111
			c0.676,7.646,1.952,12.889-6.729,13.457C314.398,352.638,326.796,347.541,340.312,343.563z"/>
		<path fill-rule="evenodd" clip-rule="evenodd" d="M371.263,344.909c-1.498,7.562-17.089,22.159-9.42,34.987
			c-4.189,2.54-3.323,10.134-10.766,9.42c2.899-8.315,3.643-18.785,6.729-26.914c-9.648,2.921-4.732,32.042-22.877,30.95
			C346.127,376.292,353.362,355.269,371.263,344.909z"/>
		<path fill-rule="evenodd" clip-rule="evenodd" d="M614.828,346.255c2.265,1.671,6.872,3.914,4.036,6.729
			C616.506,351.753,614.189,350.481,614.828,346.255z"/>
		<path fill-rule="evenodd" clip-rule="evenodd" d="M312.053,347.601c5.524,21.23-15.734,27.321-28.259,34.987
			c3.471-10.883,14.344-14.364,24.222-18.839C307.81,356.814,309.739,352.015,312.053,347.601z"/>
		<path fill-rule="evenodd" clip-rule="evenodd" d="M517.939,347.601c-5.844,7.613-11.835,15.078-24.222,16.148
			c-0.052-4.986,2.066-7.801,4.037-10.765C506.673,353.379,509.603,347.785,517.939,347.601z"/>
		<path fill-rule="evenodd" clip-rule="evenodd" d="M419.706,350.292c-2.812,5.263-5.698,10.45-13.457,10.765
			C406.611,353.87,412.616,346.404,419.706,350.292z"/>
		<path fill-rule="evenodd" clip-rule="evenodd" d="M306.67,351.638c0.058,6.788-6.134,12.98-10.765,10.765
			C296.557,355.878,298.679,350.823,306.67,351.638z"/>
		<path fill-rule="evenodd" clip-rule="evenodd" d="M217.856,352.983c-1.45,4.829-4.545,8.014-12.111,6.728
			C206.347,354.033,212.68,354.086,217.856,352.983z"/>
		<path fill-rule="evenodd" clip-rule="evenodd" d="M250.152,354.329c0.058,7.234-3.169,11.185-10.766,10.765
			C233.822,356.95,242.129,348.643,250.152,354.329z"/>
		<path fill-rule="evenodd" clip-rule="evenodd" d="M386.064,375.859c8.674,0.135,16.492-12.203,28.259-13.457
			c-8.262,11.923-22.282,18.087-29.604,30.95c4.858-0.076,6.514-3.354,10.766-4.037c-4.592,8.865-14.187,12.727-22.876,17.493
			c-2.604-7.565,7.356-14.152,10.765-20.185c-4.532-4.005-8.605,3.896-13.456,4.037c0.259-4.675,4.759-5.109,5.382-9.42
			c-7.962-4.847-11.364,11.039-13.456,20.185c1.895,2.671,4.553-5.225,6.729-6.729c2.062,6.578-8.73,11.881-6.729,22.876
			c1.463,1.809,6.584-4.104,9.42-5.383c4.786,6.193-6.583,7.726-8.074,12.111c-0.066,14.288-1.662,27.045-10.766,32.296
			c0.334-6.394,4.123-9.333,5.383-14.803c-12.432,3.268-11.93,19.47-18.84,28.259c-9.018-21.084,22.378-23.977,17.494-49.79
			c-3.029,2.802-4.334,7.328-8.074,9.419c-2.485-7.002,8.662-11.949,9.42-20.185c-1.896-2.671-4.553,5.226-6.729,6.729
			c8.177-21.879,16.658-55.108,45.753-60.555c-4.188,6.577-13.62,7.911-16.148,16.148c7.135,2.287,11.468-8.9,20.186-9.419
			C396.831,367.787,390.833,371.208,386.064,375.859z"/>
		<path fill-rule="evenodd" clip-rule="evenodd" d="M465.459,367.786c0.637,7.365-4.076,9.381-9.42,10.765
			C456.61,372.394,458.971,368.025,465.459,367.786z"/>
		<path fill-rule="evenodd" clip-rule="evenodd" d="M166.721,370.477c5.471,0.928-3.785,8.166-9.419,6.728
			C157.42,371.941,164.546,373.685,166.721,370.477z"/>
		<path fill-rule="evenodd" clip-rule="evenodd" d="M306.67,374.514c-11.146,6.347-12.947,22.041-26.913,25.568
			c3.23-5.292,8.881-8.165,12.111-13.457c-12.871,7.319-34.191,17.837-49.79,26.913c0.815,7.095-1.192,11.367-6.729,12.111
			c1.548-9.946,4.782-16.445,9.42-21.531c8.105-8.889,17.793-8.292,29.604-12.111C286.757,388.004,294.866,376.013,306.67,374.514z"
			/>
		<path fill-rule="evenodd" clip-rule="evenodd" d="M453.348,374.514c-8.247,6.556-8.908,20.696-17.493,26.914
			c0.107-5.275,2.371-8.394,4.037-12.111c-1.852-3.055-6.708,2.157-8.074,4.037C433.132,386.577,444.698,378.437,453.348,374.514z"
			/>
		<path fill-rule="evenodd" clip-rule="evenodd" d="M647.124,374.514c-9.177,12.368-9.332,38.353-29.605,37.679
			c4.521-7.59,15.106-9.116,18.84-17.494c0.93-5.416-5.667-3.304-5.383-8.074C635.825,382.055,641.013,377.822,647.124,374.514z"/>
		<path fill-rule="evenodd" clip-rule="evenodd" d="M539.471,400.082c-6.595,2.058-23.195,12.521-36.333,8.074
			c17.844-2.341,29.188-11.182,43.061-17.493c1.979-5.119-6.015-0.265-4.036-5.383c14.856-1.292,28.365-3.93,39.024-9.42
			c-6.701,13.933-28.61,12.657-40.37,21.531c2.856,2.767,9.321-2.274,14.802-1.346c-4.85,5.915-10.08,11.451-20.185,12.111
			C534.923,403.607,537.766,402.414,539.471,400.082z"/>
		<path fill-rule="evenodd" clip-rule="evenodd" d="M266.3,377.205c-0.866,5.413-3.336,9.223-10.765,8.074
			C255.121,378.586,258.887,376.071,266.3,377.205z"/>
		<path fill-rule="evenodd" clip-rule="evenodd" d="M461.422,381.242c-0.994,4.837-2.668,8.994-9.42,8.074
			C453.756,385.238,454.915,380.567,461.422,381.242z"/>
		<path fill-rule="evenodd" clip-rule="evenodd" d="M625.593,385.279c-0.615-4.205,2.875-4.302,6.729-4.037
			C632.938,385.446,629.446,385.544,625.593,385.279z"/>
		<path fill-rule="evenodd" clip-rule="evenodd" d="M207.091,382.588c3.526,1.791,2.57,5.973,1.346,9.419
			C203.324,390.782,207.452,386.6,207.091,382.588z"/>
		<path fill-rule="evenodd" clip-rule="evenodd" d="M534.088,383.934c3.948,3.39-4.851,16.431-13.457,16.148
			C521.479,391.061,526.765,386.479,534.088,383.934z"/>
		<path fill-rule="evenodd" clip-rule="evenodd" fill="#FFFFFF" d="M400.867,393.353c1.461,0.333,0.912,2.676,2.69,2.691
			c-1.598,4.682-2.935,9.625-8.073,10.765C397.559,402.604,398.352,397.118,400.867,393.353z"/>
		<path fill-rule="evenodd" clip-rule="evenodd" d="M351.077,396.044c0.787,20.075-11.691,26.885-17.494,40.37
			c1.207-12.699,7.358-20.453,12.111-29.605c-1.645-1.943-5.136-2.041-6.729-4.037C340.103,396.323,344.77,393.933,351.077,396.044z
			"/>
		<path fill-rule="evenodd" clip-rule="evenodd" d="M456.039,394.699c3.906,4.889-3.694,7.263-6.729,9.42
			C447.005,401.723,451.779,394.991,456.039,394.699z"/>
		<path fill-rule="evenodd" clip-rule="evenodd" d="M176.141,396.044c-0.595,3.892-2.837,6.134-6.729,6.729
			C170.007,398.881,172.249,396.639,176.141,396.044z"/>
		<path fill-rule="evenodd" clip-rule="evenodd" d="M239.387,400.082c-3.073,4.552-1.49,13.76-10.765,12.111
			C223.969,403.709,230.556,394.545,239.387,400.082z"/>
		<path fill-rule="evenodd" clip-rule="evenodd" d="M454.693,409.501c-1.778,4.501-5.757,6.803-12.11,6.729
			C442.554,409.806,450.109,403.236,454.693,409.501z"/>
		<path fill-rule="evenodd" clip-rule="evenodd" d="M200.362,408.155c2.593,0.547,1.063,5.217,5.383,4.037
			c-0.986,5.742-4.148,9.308-10.766,9.42C191.015,415.979,196.726,410.458,200.362,408.155z"/>
		<path fill-rule="evenodd" clip-rule="evenodd" d="M544.853,413.538c-2.899,5.174-10.192,5.955-16.147,8.074
			c6.638,3.236,19.454-3.797,26.913,0c-1.081,3.404-5.539,3.432-8.074,5.382c6.922,6.087,20.708,5.309,30.951,8.074
			c-10.127,4.363-31.182-2.63-43.062-5.383c-1.18-4.32,3.489-2.79,4.037-5.382c-7.663-0.037-11.833,3.418-20.186,2.691
			c-0.466,8.54,8.129,8.02,6.729,17.494c-4.025-2.254-6.399-6.16-9.42-9.419c-2.233,6.289-1.885,15.16-5.382,20.185
			c-4.207-7.385,2.205-22.772-1.346-34.987c3.066,0.376,5.059-0.324,5.382-2.691c3.104-0.412,1.495,3.888,4.037,4.037
			c4.173,0.135,6.429-1.646,9.42-2.691c1.663-4.354-4.354-1.028-2.691-5.383C532.446,414.032,539.537,409.891,544.853,413.538z"/>
		<path fill-rule="evenodd" clip-rule="evenodd" d="M133.079,413.538c5.824,2.21,0.726,10.848-1.346,13.457
			C127.405,423.29,130.15,417.004,133.079,413.538z"/>
		<path fill-rule="evenodd" clip-rule="evenodd" d="M322.818,416.229c4.905,9.114-5.472,25.801-2.691,41.716
			c2.023,2.369,5.93-4.759,6.729-8.074c3.099,6.28-3.466,14.446-2.691,22.876c6.021,0.19,3.867-7.795,6.729-10.765
			c2.856,4.263-2.021,12.288-2.691,17.493c1.392,2.595,5.336-3.529,6.728-5.382c0.659,7.855-5.746,20.254-14.802,22.876
			c0.547-4.969-1.515-11.104-4.037-14.803c-10.079-14.778-21.191,1.782-32.296,8.074c-3.322-8.171-0.811-21.179,6.729-22.876
			c-1.074,2.515-2.249,4.929-2.691,8.074c5.403-6.343,31.369-17.862,22.876-33.642C313.418,431.949,321.899,427.87,322.818,416.229z
			"/>
		<path fill-rule="evenodd" clip-rule="evenodd" d="M234.004,420.267c-0.268,6.46-2.953,10.503-10.765,9.419
			C222.569,421.948,228.388,413.698,234.004,420.267z"/>
		<path fill-rule="evenodd" clip-rule="evenodd" d="M164.029,420.267c5.267-0.781,7.813,1.158,10.766,2.691
			c-1.419,5.309-5.209,8.248-9.42,10.765C159.944,431.727,162.314,425.166,164.029,420.267z"/>
		<path fill-rule="evenodd" clip-rule="evenodd" d="M267.646,431.032c-2.547,1.96-6.614,6.447-10.765,2.691
			c-4.273,3.352-3.436,11.816-10.766,12.111C243.097,434.498,261.514,409.252,267.646,431.032z"/>
		<path fill-rule="evenodd" clip-rule="evenodd" fill="#FFFFFF" d="M431.817,425.649c3.592,1.969-0.563,7.383-4.037,6.728
			C427.144,428.153,431.401,428.822,431.817,425.649z"/>
		<path fill-rule="evenodd" clip-rule="evenodd" d="M213.819,426.995c3.12-0.429,5.166,0.216,6.729,1.346
			c0.06,6.34-3.891,8.669-6.729,12.111C207.83,438.257,213.601,431.181,213.819,426.995z"/>
		<path fill-rule="evenodd" clip-rule="evenodd" d="M349.731,433.723c-2.607,11.298-12.458,15.353-17.494,24.222
			C333.914,446.467,336.571,429.284,349.731,433.723z"/>
		<path fill-rule="evenodd" clip-rule="evenodd" d="M531.396,433.723c4.081-0.044,3.353,4.721,4.037,8.074
			c5.862-5.655,9.431-4.222,16.147-2.691c1.003,4.142-3.693,2.586-2.691,6.728c5.158-2.02,8.22-6.134,14.803-6.728
			c-6.762,6.695-10.409,16.504-24.222,16.148c1.946-2.09,1.794-6.279,4.037-8.074c-0.028-4.01-6.349-1.726-8.074-4.037
			c-0.168,5.551,2.339,8.427,1.346,14.803c-1.768-1.615-2.116-0.524-4.037,0c2.015,3.816,2.806,8.856,4.037,13.457
			c6.43-1.195,8.693-6.557,12.11-10.765c3.391,11.481-12.476,15.321-17.493,22.876c-1.854-1.734-1.332-5.845-1.346-9.419
			c-1.17-3.975-2.015,3.122-5.383,1.346C529.367,463.99,528.364,446.839,531.396,433.723z"/>
		<path fill-rule="evenodd" clip-rule="evenodd" d="M601.371,435.069c2.597,0.543,0.117,6.163,5.383,4.037
			c-1.405,6.144-9.687,11.333-16.148,8.074C591.128,440.076,597.233,438.557,601.371,435.069z"/>
		<path fill-rule="evenodd" clip-rule="evenodd" fill="#FFFFFF" d="M236.695,439.106c0.665,7.414-17.652,7.451-13.456,22.876
			C215.049,450.05,226.15,440.524,236.695,439.106z"/>
		<path fill-rule="evenodd" clip-rule="evenodd" d="M481.606,443.143c3.124,6.305,0.018,17.929-4.037,21.531
			C470.363,458.652,478.289,447.311,481.606,443.143z"/>
		<path fill-rule="evenodd" clip-rule="evenodd" d="M517.939,443.143c9.812,14.362,3.934,36.963-4.036,48.444
			c3.292,1.443,6.582-8.627,12.11-9.42c-2.408,12.394-8.255,21.35-13.456,30.95c-14.08-19.372,9.554-32.604,6.728-53.826
			c-6.269,4.497-4.709,16.821-12.11,20.185C508.578,465.18,515.995,456.897,517.939,443.143z"/>
		<path fill-rule="evenodd" clip-rule="evenodd" d="M587.914,444.488c-10.159,5.091-15.583,14.919-25.567,20.185
			C558.001,450.445,574.315,445.254,587.914,444.488z"/>
		<path fill-rule="evenodd" clip-rule="evenodd" fill="#FFFFFF" d="M407.595,445.834c-3.286,9.373-14.491,4.186-21.53,5.383
			c-14.829,2.523-24.184,12.136-33.642,18.839C361.275,452.224,384.594,445.506,407.595,445.834z"/>
		<path fill-rule="evenodd" clip-rule="evenodd" d="M295.905,466.019c-3.912-7.982,6.386-13.325,9.419-18.839
			C312.726,453.6,298.418,460.639,295.905,466.019z"/>
		<path fill-rule="evenodd" clip-rule="evenodd" d="M488.335,448.525c1.727,14.745-4.926,32.746-13.457,41.716
			c0-3.588,0-7.177,0-10.766C484.755,474.55,484.082,459.074,488.335,448.525z"/>
		<path fill-rule="evenodd" clip-rule="evenodd" d="M622.901,449.871c5.377,4.817-13.255,8.027-16.147,13.457
			c0.153,6.433-3.584,8.976-5.383,13.457c-5.616,1.561-10.041,4.313-14.802,6.728c-14.477-4.44-21.282,9.994-32.297,13.457
			c-0.059-5.891,3.848-7.815,6.729-10.766c-8.227-1.049-8.527,5.826-14.803,6.729c-0.17-2.414,1.647-2.838,1.346-5.383
			c-5.924,1.701-8.977,6.274-14.802,8.074c-3.14-7.657,7.244-13.367,13.456-16.148c2.677-8.537,7.338-15.09,10.766-22.876
			c2.375,2.464-1.488,10.106-1.346,14.802c15.893,10.785,33.936-7.138,43.062-16.148c2.701,8.557-10.019,13.288-13.456,20.185
			C603.241,472.375,604.007,452.059,622.901,449.871z"/>
		<path fill-rule="evenodd" clip-rule="evenodd" d="M594.643,451.217c-0.04,10.383-18.647,20.688-30.95,18.839
			C571.272,461.039,579.013,452.183,594.643,451.217z"/>
		<path fill-rule="evenodd" clip-rule="evenodd" d="M433.163,452.562c-3.565,8.995-9.229,15.891-21.531,16.148
			c2.174-5.72,22.027-7.213,14.803-13.457C426.633,452.312,429.825,452.364,433.163,452.562z"/>
		<path fill-rule="evenodd" clip-rule="evenodd" d="M624.247,456.6c6.145,9.038-13.701,14.856-17.493,22.876
			c0.559,8.633-1.081,15.067-4.037,20.185C594.781,475.57,615.628,468.619,624.247,456.6z"/>
		<path fill-rule="evenodd" clip-rule="evenodd" d="M507.175,459.291c2.415,6.932-2.897,17.713-9.42,20.185
			c2.402-4.325,0.783-12.674,2.691-17.493C503.773,465.906,505.707,463.617,507.175,459.291z"/>
		<path fill-rule="evenodd" clip-rule="evenodd" d="M687.493,463.328c10.24,2.32,14.648,10.472,16.148,21.531
			c-3.173,0.416-2.504,4.673-6.729,4.037C695.513,478.633,692.121,470.363,687.493,463.328z"/>
		<path fill-rule="evenodd" clip-rule="evenodd" d="M98.092,471.402c1.346,0,2.691,0,4.037,0c0,1.346,0,2.691,0,4.037
			c-3.672-0.122-2.709,2.241-5.383,0C97.458,474.356,98.15,473.254,98.092,471.402z"/>
		<path fill-rule="evenodd" clip-rule="evenodd" d="M173.449,472.748c13.12,13.172,40.719-0.79,43.062,25.567
			c-9.881-0.649-10.127-17.393-22.877-10.765c-2.147,3.555,8.34,5.969,6.729,13.457C192.743,490.235,177.05,487.538,173.449,472.748
			z"/>
		<path fill-rule="evenodd" clip-rule="evenodd" d="M411.632,479.476c-3.955,2.46-11.107,3.798-16.147,1.346
			C396.565,475.044,411.731,470.81,411.632,479.476z"/>
		<path fill-rule="evenodd" clip-rule="evenodd" d="M390.102,476.785c4.521,3.792-0.998,22.793,10.766,24.222
			c7.795,0.947,11.351-6.522,12.11-17.494c7.319,9.87-2.869,25.598,0,39.024c-7.715-1.256-6.969-10.973-14.802-12.111
			c-6.717,3.152-8.716,11.02-17.494,12.111c0.909-6.716,4.19-11.06,4.037-18.839c3.035,1.002,0.526,7.548,1.346,10.765
			c6.733-5.76,4.487-13.337,2.691-22.876c-10.85,10.232-8.192,33.972-18.839,44.407c0,3.588,0,7.177,0,10.766
			c-8.379-17.189-13.616-37.52-17.494-59.209c5.318,2.326,10.471,16.429,14.803,24.222c-4.267-2.462-6.041-7.417-8.074-12.111
			c-1.961,10.5,10.793,17.902,8.074,33.642c7.269-8.765,9.574-20.081,9.419-32.296C376.492,488.967,387.746,488.466,390.102,476.785
			z"/>
		<path fill-rule="evenodd" clip-rule="evenodd" d="M449.311,475.439c3.035,1.002,0.526,7.548,1.346,10.765
			c7.104,0.376,2.099-11.358,10.766-9.419c-2.446,10.114-3.312,21.808-14.803,22.876
			C442.724,491.749,448.359,482.874,449.311,475.439z"/>
		<path fill-rule="evenodd" clip-rule="evenodd" d="M649.815,478.13c-7.571-0.36-21.036,3.591-28.26,2.691
			C626.883,474.464,641.631,474.426,649.815,478.13z"/>
		<path fill-rule="evenodd" clip-rule="evenodd" d="M384.719,476.785c5.898,2.242-5.966,12.297-9.42,9.419
			C375.984,480.609,381.067,479.412,384.719,476.785z"/>
		<path fill-rule="evenodd" clip-rule="evenodd" d="M274.374,478.13c8.621,9.832,1.479,19.492-5.383,29.605
			c-2.67-2.544-2.293-4.717-1.346-8.074c-5.466,2.608-1.471,14.677-2.691,21.531c-5.658-3.761-1.34-17.5-2.691-25.567
			c-0.93-3.36-3.589,2.497-6.728,1.346C259.147,485.125,270.055,487.727,274.374,478.13z"/>
		<path fill-rule="evenodd" clip-rule="evenodd" d="M594.643,480.821c3.389,7.158-12.496,17.872-22.876,20.185
			C572.467,487.354,591.065,491.598,594.643,480.821z"/>
		<path fill-rule="evenodd" clip-rule="evenodd" d="M491.026,525.229c-0.668-8.587,2.382-25.58-4.037-24.222
			c0.107-5.275,2.372-8.394,4.037-12.111c3.002,5.969,1.722,16.221,4.037,22.876c1.641-5.819,1.885-18.967,5.383-29.605
			C500.987,494.83,500.901,518.499,491.026,525.229z"/>
		<path fill-rule="evenodd" clip-rule="evenodd" d="M297.251,484.858c6.149-0.044,0.069,4.721,1.346,8.074
			C294.158,492.155,296.667,487.851,297.251,484.858z"/>
		<path fill-rule="evenodd" clip-rule="evenodd" d="M505.829,484.858c3.002,1.379,1.062,9.009-2.691,8.074
			C502.072,488.279,504.634,487.251,505.829,484.858z"/>
		<path fill-rule="evenodd" clip-rule="evenodd" d="M407.595,486.204c0,2.243,0,4.485,0,6.729c-2.647,2.669-7.686,0.856-10.765,0
			C396.042,486.313,401.254,485.694,407.595,486.204z"/>
		<path fill-rule="evenodd" clip-rule="evenodd" d="M312.053,487.55c2.31,3.97,2.854,9.706,2.691,16.148
			C309,503.162,313.462,492.421,312.053,487.55z"/>
		<path fill-rule="evenodd" clip-rule="evenodd" d="M231.312,490.241c5.894,2.45,17.572-3.954,20.186,4.037
			c-2.243,0-4.485,0-6.729,0c1.967,4.762,7.794,5.662,10.766,9.419C247.56,504.477,237.713,495.519,231.312,490.241z"/>
		<path fill-rule="evenodd" clip-rule="evenodd" d="M306.67,490.241c2.055,0.022,2.95,9.972-1.346,8.074
			C305.147,494.998,305.121,491.832,306.67,490.241z"/>
		<path fill-rule="evenodd" clip-rule="evenodd" d="M338.966,490.241c10.65,10.88,18.911,24.15,20.186,44.407
			C351.271,520.997,346.676,504.062,338.966,490.241z"/>
		<path fill-rule="evenodd" clip-rule="evenodd" d="M332.237,491.587c7.198,7.156,13.486,15.222,12.111,30.95
			c-4.302-6.015-4.529-16.104-9.42-21.531c-4.07,3.555-9.281,5.969-9.419,13.457C320.269,504.706,329.212,497.556,332.237,491.587z"
			/>
		<path fill-rule="evenodd" clip-rule="evenodd" d="M201.708,492.933c8.531,7.617,17.055,15.241,26.914,21.53
			c2.196-1.851-0.945-9.743-1.346-13.457c7.69,2.839,6.658,14.752,9.419,22.876c2.76,8.119,12.733,19.436,2.691,25.567
			c-13.797-16.256-22.954-37.151-47.099-43.061c16.752-2.665,33.15,17.851,43.062,30.95
			C237.44,514.61,206.686,513.078,201.708,492.933z"/>
		<path fill-rule="evenodd" clip-rule="evenodd" d="M145.19,496.97c-1.453,5.268-6.88,9.141-12.111,6.728
			C131.855,494.922,140.667,492.595,145.19,496.97z"/>
		<path fill-rule="evenodd" clip-rule="evenodd" d="M595.988,494.278c1.577,0.217,1.136,2.453,1.346,4.037
			c-12.64,6.2-19.977,17.702-22.876,33.642c-4.047-7.672,0.532-18.28,4.037-22.876c-0.588-1.998-1.723,0.531-4.037,0
			C576.894,499.405,588.189,498.59,595.988,494.278z"/>
		<path fill-rule="evenodd" clip-rule="evenodd" d="M460.076,496.97c2.389,11.822-3.643,26.848-1.346,43.061
			c4.582,0.097,5.013-3.958,6.729-6.728c2.944,3.471,1.202,13.703,0,17.493c-9.183,0.238-7.608,11.231-14.803,13.457
			c-0.169-10.561,5.003-25.435,4.037-40.37C453.971,512.699,454.471,504.41,460.076,496.97z"/>
		<path fill-rule="evenodd" clip-rule="evenodd" d="M291.868,499.661c5.475,3.241,2.649,17.836-4.037,17.494
			C284.6,511.508,287.044,501.567,291.868,499.661z"/>
		<path fill-rule="evenodd" clip-rule="evenodd" d="M538.125,499.661c7.032,2.85-2.109,10.803-2.691,14.802
			c-2.983,0.741-1.916-2.569-4.037-2.691c-5.999,3.42-5.234,13.605-9.42,18.839C519.724,518.028,529.388,505.736,538.125,499.661z"
			/>
		<path fill-rule="evenodd" clip-rule="evenodd" d="M278.411,501.006c3.187,6.367-0.502,17.41-8.074,17.494
			C270.46,510.1,271.894,503.011,278.411,501.006z"/>
		<path fill-rule="evenodd" clip-rule="evenodd" d="M648.47,503.698c-2.615,4.114-8.041,5.416-14.803,5.383
			C633.825,502.908,643.578,500.843,648.47,503.698z"/>
		<path fill-rule="evenodd" clip-rule="evenodd" d="M299.942,503.698c7.116,3.152,6.359,27.168-5.383,24.222
			C295.443,518.936,299.737,513.362,299.942,503.698z"/>
		<path fill-rule="evenodd" clip-rule="evenodd" d="M306.67,505.043c4.909,1.507,4.671,10.235,9.42,8.074
			c-6.312,10.394,5.376,24.151-5.383,30.951C296.004,539.523,314.392,519.088,306.67,505.043z"/>
		<path fill-rule="evenodd" clip-rule="evenodd" d="M581.187,591.166c-7.046,2.836-11.842,19.547-18.84,26.914
			c-20.691-3.215-13.043-24.189-14.803-41.716c-1.023-10.194-8.262-16.755-6.728-25.568c15.458-9.661,26.967-23.271,29.604-45.752
			c2.464,19.516-2.459,43.289-8.074,59.209c-2.4-7.81,4.857-17.551,4.037-28.259c-7.297-0.547-5.428,19.676-13.457,22.876
			c-1.034-5.071,1.643-6.433,1.346-10.766c-5.854-0.92-7.447,2.42-9.42,5.383c3.599,9.41,10.091,15.926,8.074,30.95
			c6.245-14.388,18.499-22.768,20.186-41.715c4.766,1.178,3.309,0.167,8.074,1.346c0.205,7.382,0.145,14.499-1.346,20.185
			c-6.017-4.641-12.73,10.819-16.148,17.494c7.191,0.463,4.639-8.818,13.457-6.729c-7.477,7.206-8.431,27.003-22.877,22.876
			c0.416-4.901-0.214-8.757-1.346-12.111c-4.928,6.829-1.673,18.122,5.383,18.84c12.35,1.255,25.865-31.58,28.26-43.062
			c-1.801,21.908-2.203,53.015-9.42,71.32C581.135,621.616,578.317,603.548,581.187,591.166z"/>
		<path fill-rule="evenodd" clip-rule="evenodd" d="M504.483,507.735c3.113,4.962-3.12,12.09-5.383,16.148
			C494.629,517.563,502.572,512.145,504.483,507.735z"/>
		<path fill-rule="evenodd" clip-rule="evenodd" d="M251.498,509.081c6.254,4.027,0.613,18.216-1.346,22.876
			c-8.447-1.87-11.414-9.22-10.766-20.185c3.26-2.865,5.951,2.998,8.074,5.382C250.721,516.377,250.453,512.073,251.498,509.081z"/>
		<path fill-rule="evenodd" clip-rule="evenodd" d="M332.237,509.081c7.786,8.139,18.449,31.114,9.42,43.061
			c-10.525-1.213-2.456-10.584-2.691-16.148C338.558,526.331,332.462,518.765,332.237,509.081z"/>
		<path fill-rule="evenodd" clip-rule="evenodd" d="M464.113,510.426c3.705,5.813,2.659,15.347,0,21.531
			C461.673,527.667,462.161,514.794,464.113,510.426z"/>
		<path fill-rule="evenodd" clip-rule="evenodd" d="M589.26,511.772c4.405,5.559-9.799,15.13-9.419,25.567
			C576.822,528.019,583.038,516.332,589.26,511.772z"/>
		<path fill-rule="evenodd" clip-rule="evenodd" d="M166.721,513.117c3.428,1.955,3.612,7.153,6.729,9.42
			c2.795-0.345,0.368-5.912,2.691-6.729c3.796,10.697,12.522,26.662,2.691,36.333c0.032-4.966-0.603-9.266-5.383-9.419
			c-0.371,6.444-0.901,16.95-5.383,22.876c-4.047-4.137,1.053-10.543,1.346-14.803c-2.361-3.984-2.792,5.155-6.729,4.037
			c3.852-7.675,4.353-15.123,2.691-25.567c3.669,1.266,2.557,7.312,9.42,5.382C173.052,526.522,165.4,524.307,166.721,513.117z"/>
		<path fill-rule="evenodd" clip-rule="evenodd" d="M396.83,514.463c8.77,5.514,9.265,17.065,24.222,18.84c0,3.14,0,6.279,0,9.419
			c-1.564-0.219-2.395,0.297-2.691,1.346c-6.468-4.746-13.863-8.565-18.839-14.802c-2.795,0.345-0.368,5.912-2.691,6.728
			c-2.414-2.904-2.364-6.179-1.346-9.419c-5.586,2.937-4.066,12.979-5.383,20.185c-2.562-2.522-3.381-0.147-6.729,0
			C382.62,530.755,392.162,525.046,396.83,514.463z"/>
		<path fill-rule="evenodd" clip-rule="evenodd" d="M521.977,514.463c-1.333,8.087-5.11,13.729-6.729,21.531
			c2.011,4.439,1.586-4.501,5.383-2.691c-2.382,4.795-1.683,12.671-9.419,12.111C515.1,535.396,510.985,517.377,521.977,514.463z"/>
		<path fill-rule="evenodd" clip-rule="evenodd" d="M286.485,518.5c0.173,7.35-0.836,13.518-6.729,14.803
			C276.641,527.771,278.773,517.519,286.485,518.5z"/>
		<path fill-rule="evenodd" clip-rule="evenodd" d="M182.869,519.846c12.833,6.006,16.896,20.783,26.913,29.604
			c0.666-7.842-0.387-13.967-2.691-18.839c9.695,13.629,23.029,23.62,21.531,48.444c-8.817-2.846-5.484-17.841-10.766-24.222
			c-1.843,2.354,1.91,13.163-1.346,17.494c-8.717-10.571-12.487-26.088-22.877-34.987c-1.853,2.083-2.709,8.077-1.346,9.42
			c0.476,1.885,2.369,0.116,2.691-1.346c2.882,6.061-4.088,13.824-6.728,18.839C181.392,549.755,193.299,531.751,182.869,519.846z"
			/>
		<path fill-rule="evenodd" clip-rule="evenodd" d="M243.424,565.599c7.003-1.684,4.452,14.882-2.691,14.802
			c-4.74-7.637-0.458-16.007-1.346-26.914c12.754-4.74,12.761-22.227,18.84-33.642c1.14,11.298-1.449,27.059-1.346,39.024
			c-2.899-1.138-2.172-5.903-4.037-8.074C248.655,554.681,249.512,563.612,243.424,565.599z"/>
		<path fill-rule="evenodd" clip-rule="evenodd" d="M328.201,519.846c-2.352,10.656-4.012,25.288-9.42,37.679
			c-20.338,2.396-23.592-12.292-25.567-28.259c6.051,6.695,9.271,21.28,18.839,20.185
			C327.864,547.641,309.789,523.588,328.201,519.846z"/>
		<path fill-rule="evenodd" clip-rule="evenodd" d="M528.705,519.846c7.416,11.814-5.124,37.5,0,49.79
			c-0.798,6.827-6.054,9.197-12.111,10.766C519.246,558.831,529.856,545.219,528.705,519.846z"/>
		<path fill-rule="evenodd" clip-rule="evenodd" d="M267.646,523.883c2.174-0.379,2.317,1.271,4.037,1.346
			c0.935,8.56-1.672,13.579-5.383,17.494C263.026,538.042,265.397,527.511,267.646,523.883z"/>
		<path fill-rule="evenodd" clip-rule="evenodd" d="M351.077,523.883c3.624,20.629,2.504,39.374,9.42,57.864
			c3.511-4.114-1.461-16.712,6.729-16.148c1.771,4.956,3.04,10.416,2.691,17.494c4.525,0.04,2.74-6.23,5.382-8.074
			c1.312,2.719,0.129,14.437-4.036,16.148c-6.868-0.309-2.313-12.041-5.383-16.148c-3.066,2.765-0.042,11.621-2.691,14.802
			C347.606,573.625,349.82,548.779,351.077,523.883z"/>
		<path fill-rule="evenodd" clip-rule="evenodd" d="M503.138,523.883c2.135,8.667,2.68,26.845,5.383,39.024
			c3.182-3.098,4.306-8.253,6.728-12.111c1.174,9.265-2.421,25.376-12.11,28.259C504.682,559.328,499.644,541.347,503.138,523.883z"
			/>
		<path fill-rule="evenodd" clip-rule="evenodd" d="M69.833,525.229c2.918-0.227,0.609,4.773,1.346,6.729
			C65.939,531.407,67.575,527.353,69.833,525.229z"/>
		<path fill-rule="evenodd" clip-rule="evenodd" d="M384.719,525.229c-0.065,7.349-7.924,17.917-12.11,25.567
			C372.985,538.614,374.973,528.042,384.719,525.229z"/>
		<path fill-rule="evenodd" clip-rule="evenodd" d="M474.878,526.574c5.361,1.936,3.747,18.552-4.036,16.148
			C470.636,535.788,472.564,530.989,474.878,526.574z"/>
		<path fill-rule="evenodd" clip-rule="evenodd" d="M457.385,562.907c3.88,15.598,9.343-6.343,12.111-12.111
			c3.065,2.766,0.042,11.621,2.691,14.803c4.233-0.673,5.26,2.933,8.073,0c3.543-12.605,7.354-24.941,12.111-36.333
			c5.105,15.435-8.354,23.933-5.383,41.715c-7.066,7.287-14.303,14.405-17.493,25.568
			C458.737,591.658,452.8,579.219,457.385,562.907z"/>
		<path fill-rule="evenodd" clip-rule="evenodd" d="M700.95,530.611c5.042-0.936,3.279,10.183-1.346,8.074
			C698.629,534.569,701.927,534.727,700.95,530.611z"/>
		<path fill-rule="evenodd" clip-rule="evenodd" d="M329.547,534.648c5.456-0.521,1.481,8.386,2.69,12.111
			C324.527,549.224,325.679,535.692,329.547,534.648z"/>
		<path fill-rule="evenodd" clip-rule="evenodd" d="M542.162,534.648c-0.239,9.643-2.828,28.561-9.42,36.333
			c0.331-4.154,1.364-7.607,2.691-10.765c-0.886-4.03-2.877,1.287-5.383,0C531.163,548.769,540.525,545.571,542.162,534.648z"/>
		<path fill-rule="evenodd" clip-rule="evenodd" d="M161.338,538.685c3.657,8.671-5.106,10.339-14.802,9.419
			C148.861,542.324,152.843,534.191,161.338,538.685z"/>
		<path fill-rule="evenodd" clip-rule="evenodd" d="M281.103,537.339c5.458,3.57,5.505,12.386,2.691,17.494
			c-8.918,1.292-6.422-8.829-6.729-16.148C279.004,540.19,280.349,540.136,281.103,537.339z"/>
		<path fill-rule="evenodd" clip-rule="evenodd" d="M273.028,538.685c-6.014,15.11,9.582,19.595,14.803,30.95
			c4.088-1.659-1.459-4.627,0-8.074c0.399,14.609,27.944,37.103,26.913,6.729c5.159,6.572,0.88,20.818-4.037,25.567
			c-15.557,1.651-16.1-11.71-20.185-21.531c-3.174,1.976-2.504,2.84-6.729,1.346c5.84,9.859,10.551,20.848,14.803,32.296
			c3.451-0.136,2.162-5.014,4.036-6.728c6.099,5.996-0.614,13.213,0,21.53c-4.029-4.493-5.81-11.235-8.073-17.493
			c-5.564,3.407-0.064,17.877-10.766,16.147c-7.741-5.382-0.583-14.502,2.691-20.185c-4.465-11.094-1.695-26.875-6.729-30.95
			c-5.865,2.727,1.647,10.548,0,17.493c-3.173,0.416-2.504,4.673-6.729,4.037C275.457,572.502,266.013,553.387,273.028,538.685z"/>
		<path fill-rule="evenodd" clip-rule="evenodd" d="M394.139,541.376c6.299,4.702,2.86,25.723-4.037,29.604
			C385.92,558.822,393.059,552.097,394.139,541.376z"/>
		<path fill-rule="evenodd" clip-rule="evenodd" d="M404.903,541.376c1.309,0.037,1.045,1.647,1.346,2.691
			c5.018,1.759,8.935,5.783,16.148,6.728c0.781,5.267-1.158,7.813-2.691,10.766c-10.171,1.275-8.474-7.249-16.148-5.383
			C404.122,548.854,404.335,546.392,404.903,541.376z"/>
		<path fill-rule="evenodd" clip-rule="evenodd" d="M610.791,541.376c3.503,1.88,8.094,2.671,12.11,4.037
			c-0.405,6.771-1.803,12.55-5.383,16.148C610.032,558.327,606.17,549.457,610.791,541.376z"/>
		<path fill-rule="evenodd" clip-rule="evenodd" d="M289.177,544.068c7.58-0.982,7.58,15.785,0,14.802
			C286.854,554.298,288.24,549.007,289.177,544.068z"/>
		<path fill-rule="evenodd" clip-rule="evenodd" d="M357.806,544.068c7.715,1.642,15.98,12.714,9.42,20.185
			C358.097,561.276,354.744,552.742,357.806,544.068z"/>
		<path fill-rule="evenodd" clip-rule="evenodd" d="M326.855,549.45c4.292,5.162,8.777,12.562,16.147,10.766
			c1.971,2.964,4.09,5.779,4.037,10.765C334.701,578.62,326.828,562.697,326.855,549.45z"/>
		<path fill-rule="evenodd" clip-rule="evenodd" d="M496.409,549.45c6.969,24.021-6.239,39.509-17.494,49.79
			c-2.245,7.804,5.713,10.465,1.346,16.148c-3.939,1.209-4.134,1.209-8.073,0C468.549,587.032,496.659,578.892,496.409,549.45z"/>
		<path fill-rule="evenodd" clip-rule="evenodd" d="M379.336,550.796c2.011,4.303-0.385,15.726-8.073,14.803
			C370.728,557.438,374.962,554.048,379.336,550.796z"/>
		<path fill-rule="evenodd" clip-rule="evenodd" d="M263.608,552.142c3.471,1.848,0.299,8.245,0,10.766
			c6.273-2.416,8.45,14.317-2.691,12.111C259.438,567.436,259.496,559.777,263.608,552.142z"/>
		<path fill-rule="evenodd" clip-rule="evenodd" d="M174.795,556.179c3.576,3.666,0.125,11.721-1.346,14.802
			C169.643,567.084,174.742,560.679,174.795,556.179z"/>
		<path fill-rule="evenodd" clip-rule="evenodd" d="M297.251,557.524c2.173-0.379,2.316,1.272,4.037,1.346
			c0.981,6.364-1.92,8.846-4.037,12.111C291.732,569.258,295.854,560.533,297.251,557.524z"/>
		<path fill-rule="evenodd" clip-rule="evenodd" d="M425.089,558.87c4.854,6.015,11.96,15.084,8.074,25.567
			c-2.872,0.629-2.563-1.922-2.691-4.037c-2.709,1.798-4.399,8.662-8.074,5.382C424.122,575.668,428.066,570.817,425.089,558.87z"/>
		<path fill-rule="evenodd" clip-rule="evenodd" d="M661.926,558.87c5.042-0.936,3.279,10.183-1.346,8.074
			C659.604,562.828,662.902,562.986,661.926,558.87z"/>
		<path fill-rule="evenodd" clip-rule="evenodd" d="M400.867,560.216c3.12-0.429,5.166,0.216,6.728,1.346
			c-0.602,7.023-3.314,11.936-4.037,18.839C400.472,578.088,398.705,567.068,400.867,560.216z"/>
		<path fill-rule="evenodd" clip-rule="evenodd" d="M203.054,562.907c5.038-0.968,8.17,11.541,12.111,16.148
			c9.215,2.447,15.807,7.518,22.876,12.111c1.652-5.496-11.618-14.066-6.729-22.876c3.89,12.707,13.678,19.515,16.148,33.642
			C232.11,589.471,208.287,585.484,203.054,562.907z"/>
		<path fill-rule="evenodd" clip-rule="evenodd" d="M330.893,653.066c2.266-17.519,32.728-25.522,29.604-48.443
			c-12.834,20.359-28.936,37.45-47.099,52.48c7.197-20.17,29.52-46.258,16.148-69.975c-2.231,20.779-6.472-18.271-9.42-22.876
			c4.531,14.021,20.743,24.292,20.185,40.37c-0.414,11.936-10.299,19.359-12.11,32.296c13.819-8.608,22.112-22.743,26.913-40.37
			c-2.731-7.586-9.939-10.694-16.148-14.802c4.644,7.917,8.077,17.042,6.729,30.95c-5.151-9.308-7.143-28.316-14.802-39.024
			c16.04,5.939,26.108,17.85,41.716,24.222c8.551-6.251,5.332-24.272,8.073-36.333c6.897,18.893-0.73,45.29,10.766,60.555
			c12.271-1.185,17.55-9.363,18.839-21.53c0.866,10.796,5.891,17.434,5.383,29.604c-5.833,0.899-3.623-6.245-4.037-10.766
			c-10.854,1.831-18.49,18.199-30.95,22.876c-3.608-12.09-3.842-27.557-12.11-34.987c-4.846,2.332-5.544,8.811-6.729,14.802
			c-8.606,12.477-25.238,16.927-25.568,37.679c-4.533,2.194-5.742,7.714-12.11,8.074c-0.235-7.135-0.871-6.867,0-13.457
			c2.918-0.227,0.609,4.773,1.346,6.729C331.468,661.878,338.055,645.433,330.893,653.066z"/>
		<path fill-rule="evenodd" clip-rule="evenodd" d="M178.832,564.253c3.807,3.896-1.293,10.303-1.346,14.802
			C171.362,576.324,178.635,569.034,178.832,564.253z"/>
		<path fill-rule="evenodd" clip-rule="evenodd" d="M181.523,565.599c10.135,8.705,10.984,31.602,6.729,47.098
			c-23.843,0.518-17.685-28.965-25.568-44.407c9.81,4.992,6.552,23.053,14.803,29.604
			C181.751,589.143,184.563,578.014,181.523,565.599z"/>
		<path fill-rule="evenodd" clip-rule="evenodd" d="M302.633,565.599c2.68,1.357,5.748,2.326,6.729,5.382
			c-0.066,5.316-2.758,8.007-8.073,8.074C298.148,575.243,301.093,568.896,302.633,565.599z"/>
		<path fill-rule="evenodd" clip-rule="evenodd" d="M81.944,568.29c2.358,1.229,4.675,2.501,4.037,6.728
			C81.776,575.634,81.679,572.143,81.944,568.29z"/>
		<path fill-rule="evenodd" clip-rule="evenodd" d="M657.889,568.29c2.273,5.062,7.354,10.036,2.691,14.802
			C654.134,581.408,657.638,574.12,657.889,568.29z"/>
		<path fill-rule="evenodd" clip-rule="evenodd" d="M408.94,569.635c3.063,0.252,9.147,10.71,9.42,1.346
			c2.041,4.333,0.122,16.234-4.037,18.839C407.468,588.195,406.056,576.863,408.94,569.635z"/>
		<path fill-rule="evenodd" clip-rule="evenodd" d="M539.471,572.327c5.828,3.601-2.649,14.954-9.42,14.802
			C526.037,579.113,536.961,577.923,539.471,572.327z"/>
		<path fill-rule="evenodd" clip-rule="evenodd" d="M398.176,576.364c3.402,4.369-2.119,11.287-2.691,16.148
			C391.383,587.444,396.317,579.939,398.176,576.364z"/>
		<path fill-rule="evenodd" clip-rule="evenodd" d="M542.162,581.747c-3.686,14.726,2.723,31.139,13.456,39.024
			c-0.229,21.302-0.942,42.118-14.802,49.79c2.757-15.031,20.278-37.047,2.691-48.444c5.155,20.475-4.463,36.43-22.877,37.679
			c-5.576-14.211,10.747-16.656,14.803-25.567C539.758,613.554,530.339,594.645,542.162,581.747z"/>
		<path fill-rule="evenodd" clip-rule="evenodd" d="M194.979,584.438c9.057,15.758,0.652,41.89-13.456,47.099
			c-0.599,4.335-2.578,7.29-2.691,12.11c-15.259-12.478,10.37-22.489,16.147-30.95C194.979,603.277,194.979,593.857,194.979,584.438
			z"/>
		<path fill-rule="evenodd" clip-rule="evenodd" d="M523.322,584.438c4.214,8.645-2.291,17.158-10.765,17.494
			c-4.792,12.702-19.994,14.994-30.951,21.53c7.064-11.327,10.839-25.942,22.877-32.296c-3.351,5.621-5.811,12.132-9.42,17.494
			C505.665,607.14,508.052,585.771,523.322,584.438z"/>
		<path fill-rule="evenodd" clip-rule="evenodd" d="M404.903,591.166c2.444,7.14,0.621,18.67-5.382,21.531
			c-8.812-1.057-10.432-9.305-10.766-18.839C394.086,595.676,397.013,592.878,404.903,591.166z"/>
		<path fill-rule="evenodd" clip-rule="evenodd" d="M426.435,591.166c6.796,7.09-3.366,19.743-9.42,22.877
			c-2.157-4.574-2.157-16.958,0-21.531C420.545,598.02,423.272,595.628,426.435,591.166z"/>
		<path fill-rule="evenodd" clip-rule="evenodd" d="M531.396,593.857c-1.654,6.614,4.604,33.805-10.766,28.259
			c1.366-7.772,6.911-15.062,0-20.185C525.024,600.044,528.083,596.823,531.396,593.857z"/>
		<path fill-rule="evenodd" clip-rule="evenodd" d="M149.228,603.277c6.264,1.089,13.046,9.238,6.729,14.803
			c-4.565-0.37-4.612-5.257-9.42-5.383C145.743,607.867,148.1,606.187,149.228,603.277z"/>
		<path fill-rule="evenodd" clip-rule="evenodd" d="M425.089,717.659c-11.468,6.025-16.868,18.118-30.95,21.53
			c8.03-12.154,21.046-19.324,28.259-32.296c-7.619,2.249-8.87,10.866-18.84,10.766c4.306-12.74,21.448-12.643,21.531-29.605
			c-14.553,2.045-16.922,16.271-29.604,20.186c11.562-9.969,17.998-25.063,36.333-28.259c15.884-12.375,18.67-37.848,24.222-60.556
			c-9.058,15.963-10.5,42.438-29.604,44.407c-3.756-4.722,4.49-8.914,8.074-10.766c11.772-12.449,14.365-34.078,24.222-48.443
			c-0.339,18.281,5.66,53.069,24.222,33.642c3.754,15.969-29.275,20.961-25.567-2.691c-6.788,25.956,1.445,66.935-22.876,75.357
			c-4.559-5.979,2.897-15.868,6.729-13.457c-1.869-10.391,4.982-12.062,5.382-20.185c-10.178,5.962-25.64,29.894-14.802,45.752
			c-5.314,13.974-18.972,19.604-30.95,26.914C406.926,737.175,423.823,735.232,425.089,717.659z"/>
		<path fill-rule="evenodd" clip-rule="evenodd" d="M569.075,631.536c-10.455,18.535-4.004,59.124-25.567,64.592
			c0.439-8.855,10.553-11.152,13.456-20.185c2.904-9.034-0.465-20.424,1.346-30.951c1.641-9.536,7.524-16.16,10.766-24.222
			c2.115-5.26-1.382-14.06,6.729-14.802c-1.157,49.333,4.519,99.027-36.333,113.037c-3.218,8.444-4.563,18.761-12.111,22.876
			c-1.407-10.594,6.279-24.096,2.691-37.679c7.387-5.621,19.917-6.1,26.913-12.111C570.399,676.892,571.272,653.245,569.075,631.536
			z"/>
		<path fill-rule="evenodd" clip-rule="evenodd" d="M201.708,612.697c5.435,8.766-7.19,22.273-12.11,29.604
			c1.328,8.092,2.43,16.41,4.036,24.223c-14.341-4.333-10.119-20.784-8.073-33.642C193.714,628.925,198.523,621.623,201.708,612.697
			z"/>
		<path fill-rule="evenodd" clip-rule="evenodd" d="M407.595,628.845c-7.404,20.409-34.171,33.109-39.023,60.555
			c-2.657-3.174-0.056-11.607-5.383-12.11c-1.488-10.845,11.984-16.71,4.037-25.568c-3.384,6.874-1.928,17.434-9.42,22.877
			c1.784,7.636,9.432,9.407,6.729,21.53c-4.383-3.243-6.997-8.254-10.766-12.111c-5.508,5.258-4.047,17.484-10.766,21.531
			c-1.555,13.218,7.629,15.696,10.766,24.222c4.586-8.509-3.316-19.167,0-26.913c14.711,11.544-6.348,38.031,6.729,47.099
			c8.752-1.564,8.685-11.949,12.111-18.84c2.694,5.35-6.407,17.31,0,22.876c2.684-9.426,9.09-15.131,14.802-21.53
			c-4.238-0.65-3.047,4.13-8.074,2.691c1.544-10.566,7.732-16.49,18.84-17.493c-1.557,9.209-4.462,17.068-8.074,24.222
			c4.251,8.308,14.496,10.623,12.111,25.567c-4.588-3.935-3.023-14.021-10.766-14.802c-2.746,4.152,5.339,8.969,2.691,17.493
			c6.024,4.663,11.57,7.741,21.53,5.383c3.21,4.342,6.095,12.596,1.346,17.493c7.322,9.724,15.301,18.79,33.642,17.494
			c0.723-1.425-0.406-7.054,4.037-8.074c10.024,11.507,18.858,24.203,26.913,37.679c-13.773-4.169-15.126-20.758-34.987-18.839
			c1.045,12.86,19.469,8.341,21.531,20.185c-16.982-3.651-28.547-12.721-36.333-25.567c-6.264,5.077-0.749,18.831,0,25.567
			c-8.927-7.67-14.764-18.43-22.877-26.913c-15.108-3.282-31.816-4.965-36.332-18.84c3.122-7.193,14.888-5.745,17.493-13.456
			c-3.317-2.49-9.257-3.379-12.111-9.42c2.994-6.773,5.283-13.946,2.691-22.876c-5.105,3.417-1.728,15.316-10.765,14.802
			c-4.163,0.126-4.011-4.063-4.037-8.074c-5.258,2.368-7.158,8.094-13.457,9.42c-8-9.604,2.203-30.616-12.111-34.987
			c-5.61,1.117-10.084,3.372-14.802,5.383c-0.734,5.097-3.256,8.407-2.691,14.803c-16.612-15.644,3.404-36.383,8.074-51.136
			c2.988,7.951-3.679,17.831-6.729,24.222c1.413,1.759,6.902-3.785,10.765-4.037c6.923-22.682,13.98-45.229,20.186-68.629
			c0,4.935,0,9.868,0,14.803c4.392-8.912,10.66-19.035,8.074-30.95c-3.931,5.041-8.632,9.311-14.803,12.11
			c1.244-11.326,18.438-18.336,18.84-34.987c0.968,16.973,5.217,30.667,9.419,44.407c8.181-3.033,10.874-11.555,14.803-18.839
			C391.862,647.083,401.304,630.727,407.595,628.845z M418.36,809.164c-0.227,1.567-2.127,1.461-4.037,1.346
			c0.498,5.334,3.901,7.761,8.074,9.42c1.939-19.434-9.359-25.628-18.84-33.642C399.252,798.937,416.927,798.105,418.36,809.164z
			 M407.595,806.473c-3.808-2.023-5.732-5.93-10.765-6.729C397.007,804.561,404.866,808.675,407.595,806.473z"/>
		<path fill-rule="evenodd" clip-rule="evenodd" d="M439.892,612.697c2.662,25.01-10.87,53.995-39.024,44.407
			c-7.543,0.98-6.985,10.061-14.803,10.766c6.862-11.528,13.389-23.393,25.567-29.604c5.287,0.096,7.426,3.339,10.766,5.382
			C434.238,639.34,430.459,619.412,439.892,612.697z"/>
		<path fill-rule="evenodd" clip-rule="evenodd" d="M637.704,618.08c8.233,1.634,15.739,3.996,16.148,13.456
			c-1.793,1.348-4.062,2.218-5.383,4.037C641.732,633.056,634.354,626.489,637.704,618.08z"/>
		<path fill-rule="evenodd" clip-rule="evenodd" d="M204.399,624.808c5.548,2.097,12.521,14.379,22.877,16.147
			c0.45,4.484,3.898,5.97,2.691,12.111c2.909,3.034,4.59-1.113,9.419,0c0.445,4.931-1.494,7.478-2.691,10.766
			c-11.544,2.125-11.121-7.718-12.11-16.148C216.042,641.873,207.34,636.222,204.399,624.808z"/>
		<path fill-rule="evenodd" clip-rule="evenodd" d="M530.051,627.499c-12.568,16.14-13.828,43.587-26.913,59.209
			c12.832,1.606,17.144-16.938,22.876-26.913c1.46,8.209-6.587,18.516-8.074,28.259c-18.926,5.744-16.776,32.564-36.333,37.679
			c-1.816-15.273,9.896-17.017,13.457-26.913c-5.63,0.31-7.597,9.574-13.457,5.383c-1.947-10.021,6.736-9.412,10.766-13.457
			c3.897-13.369,12.471-20.754,16.148-30.95C512.631,648.396,516.644,633.383,530.051,627.499z"/>
		<path fill-rule="evenodd" clip-rule="evenodd" d="M130.388,631.536c6.979,1.108,1.802,14.36-4.037,14.802
			C127.616,641.324,127.019,634.447,130.388,631.536z"/>
		<path fill-rule="evenodd" clip-rule="evenodd" d="M499.101,667.869c-2.037-5.663,5.19-13.621,5.383-21.531
			c-22.217,3.8-25.357,26.677-45.753,32.297c0.051-14.752,7.417-22.188,20.185-24.223c7.464-12.721,23.153-17.217,37.679-22.876
			C513.531,646.415,504.343,655.17,499.101,667.869z"/>
		<path fill-rule="evenodd" clip-rule="evenodd" d="M201.708,634.228c9.957,2.421,0.893,9.677,4.037,16.147
			c4.599,1.01,1.71-5.467,6.729-4.037c3.154,3.551,0.226,9.176,0,13.457C204.958,655.199,199.669,648.378,201.708,634.228z"/>
		<path fill-rule="evenodd" clip-rule="evenodd" d="M239.387,639.61c-2.282,1.773,1.777,8.53-1.346,12.11
			c-6.385-0.37-8.785-10.458-2.691-12.11c-4.154-4.633-11.228,1.596-13.456-5.383c32.127-2.319,66.201,17.86,75.357,43.062
			c1.217,3.352,0.088,7.718,1.346,10.765c4.233,10.261,14.761,19.461,10.765,32.296c-9.286-23.02-20.792-53.017-41.716-68.629
			C256.198,649.712,248.165,644.289,239.387,639.61z"/>
		<path fill-rule="evenodd" clip-rule="evenodd" d="M710.37,638.265c3.705,2.083,0.131,8.077-1.346,9.419
			C705.61,645.893,710.998,641.711,710.37,638.265z"/>
		<path fill-rule="evenodd" clip-rule="evenodd" d="M248.807,658.449c-4.738-1.093-6.743-4.919-6.729-10.766
			c1.462-0.332,0.913-2.676,2.691-2.691C250.708,644.612,251.417,654.523,248.807,658.449z"/>
		<path fill-rule="evenodd" clip-rule="evenodd" d="M196.325,646.338c6.107,5.107,5.918,16.511,12.111,21.531
			c3.944-1.14-0.805-4.333,0-6.729c10.582,10.949,15.193,27.868,18.84,45.753c-5.471,0.535-4.142-5.728-8.074-6.729
			c5.04,10.219,7.198,34.96,14.802,47.099c-6.137,1.651-4.252-4.72-8.073-5.383c-3.347-26.258-13.309-45.901-22.877-65.938
			c4.555,3.519,8.533,7.615,13.457,10.765c1.285-7.565-1.826-10.732-4.037-14.802c-1.826,0.416-1.116,3.369-1.346,5.383
			C197.276,675.89,198.155,659.76,196.325,646.338z"/>
		<path fill-rule="evenodd" clip-rule="evenodd" d="M243.424,704.202c-2.728,1.525,2.9,5.964,1.346,10.766
			c-7.868-7.383-12.962-17.54-18.839-26.914c4.725-0.239,4.426,4.546,8.073,5.383c-2.803-17.294-20.353-25.801-14.802-47.099
			c6.375,8.653,4.38,18.011,9.42,25.568c8.663,12.992,27.448,18.864,22.876,44.407C247.936,713.147,246.444,707.91,243.424,704.202z
			 M246.115,700.165c-1.581-5.629-6.419-15.067-10.766-13.457C240.286,689.847,241.18,697.027,246.115,700.165z"/>
		<path fill-rule="evenodd" clip-rule="evenodd" d="M252.844,651.721c12.028,0.137,11.813,11.308,9.419,20.186
			C258.274,666.027,252.653,661.779,252.844,651.721z"/>
		<path fill-rule="evenodd" clip-rule="evenodd" d="M340.312,657.104c9.429,13.588,4.457,44.985-18.839,39.024
			c-10.079-10.289,0.356-24.824,12.11-25.567C334.877,665.126,337.711,661.23,340.312,657.104z"/>
		<path fill-rule="evenodd" clip-rule="evenodd" d="M495.063,657.104c2.5,4.522-7.673,19.073-8.074,29.604
			c-5.085,2.541-8.702,6.549-12.111,10.766c0.829,6.413,1.794,10.052-1.345,14.803c-23.363-13.131,1.28-20.623,10.765-33.642
			C490.745,669.784,488.124,660.996,495.063,657.104z"/>
		<path fill-rule="evenodd" clip-rule="evenodd" d="M375.299,709.585c12.473-14.441,10.509-43.318,30.95-49.79
			c1.846,12.163-8.392,12.241-13.456,17.494c-3.246,9.762-5.165,20.852-10.766,28.259c0.168,2.972,5.708,0.571,8.074,1.346
			c-0.82,8.15-7.708,10.234-13.457,13.456c-3.841,6.477-6.528,14.105-14.802,16.148c9.693-16.472-4.824-29.194-5.383-47.099
			C361.376,697.491,366.582,705.294,375.299,709.585z"/>
		<path fill-rule="evenodd" clip-rule="evenodd" d="M438.546,663.832c-4.262,8.298-11.211,13.909-24.223,13.457
			c-8.046,8.998-10.463,23.626-22.876,28.259C401.908,687.298,415.157,664.67,438.546,663.832z"/>
		<path fill-rule="evenodd" clip-rule="evenodd" d="M169.412,665.178c2.783,2.007,1.862,11.64-2.691,10.766
			C166.361,671.098,169.207,669.458,169.412,665.178z"/>
		<path fill-rule="evenodd" clip-rule="evenodd" d="M313.398,665.178c-2.874,9.237-7.158,17.063-6.729,29.604
			c-6.206-3.661-5.365-14.371-8.073-21.53c4.093,0.393,1.854,7.116,5.382,8.074C308.058,676.882,305.663,665.965,313.398,665.178z"
			/>
		<path fill-rule="evenodd" clip-rule="evenodd" d="M536.779,665.178c1.563,12.777-4.406,18.021-6.729,26.913
			c7.257-3.06,11.129-9.504,16.147-14.802c-5.972,11.079-17.034,28.713-29.604,37.679c4.648-17.331,10.487-33.472,16.148-49.79
			C534.088,665.178,535.434,665.178,536.779,665.178z"/>
		<path fill-rule="evenodd" clip-rule="evenodd" d="M314.744,727.078c-1.844-18.214-9.001-45.504,2.691-57.863
			c-1.904,12.246-4.753,23.37,1.346,37.679c2.491,4.114,2.016-5.931,6.729-4.037C327.06,716.069,314.902,715.574,314.744,727.078z"
			/>
		<path fill-rule="evenodd" clip-rule="evenodd" d="M377.99,673.252c8.664,3.992,3.037,24.316-5.382,24.222
			C370.794,685.792,376.42,681.55,377.99,673.252z"/>
		<path fill-rule="evenodd" clip-rule="evenodd" d="M476.224,673.252c2.67,4.961-4.762,11.349-10.765,12.11
			C462.34,679.438,471.975,676.139,476.224,673.252z"/>
		<path fill-rule="evenodd" clip-rule="evenodd" d="M159.992,682.671c1.449,6.832-2.485,8.28-5.382,10.766
			C151.406,690.144,153.849,681.079,159.992,682.671z"/>
		<path fill-rule="evenodd" clip-rule="evenodd" fill="#FFFFFF" d="M235.35,686.708"/>
		<path fill-rule="evenodd" clip-rule="evenodd" fill="#FFFFFF" d="M246.115,700.165"/>
		<path fill-rule="evenodd" clip-rule="evenodd" d="M457.385,688.054c3.34,6.978,4.706,15.928,5.383,25.568
			c-5.421,0.935-2.276-6.695-5.383-8.074c-0.635,16.283-5.139,22.403-9.42,36.333C442.352,725.71,455.388,705.522,457.385,688.054z"
			/>
		<path fill-rule="evenodd" clip-rule="evenodd" d="M421.052,694.782c-3.188,3.541-5.345,8.112-10.766,9.42
			C410.526,697.714,414.895,695.354,421.052,694.782z"/>
		<path fill-rule="evenodd" clip-rule="evenodd" d="M228.622,700.165c11.03,9.154,14.933,25.437,22.876,37.679
			c4.484-7.665-3.191-14.721-4.037-21.53c11.597,13.073,14.94,34.4,22.876,51.135C251.669,749.783,242.149,722.971,228.622,700.165z
			"/>
		<path fill-rule="evenodd" clip-rule="evenodd" d="M504.483,709.585c6.265,6.309,3.611,19.193-4.037,21.53
			c1.2,4.45,1.385,9.91,6.729,6.729c0.655,9.178-1.855,15.189-2.691,22.876c-5.485-6.177-8.871-14.454-14.803-20.185
			C489.913,725.517,502.725,723.077,504.483,709.585z"/>
		<path fill-rule="evenodd" clip-rule="evenodd" d="M196.325,714.968c4.062,3.284-1.426,8.353-2.691,10.765
			C190.164,723.039,195.015,717.334,196.325,714.968z"/>
		<path fill-rule="evenodd" clip-rule="evenodd" d="M439.892,716.313c5.071,4.97,1.491,15.319-1.346,20.185
			C426.927,733.587,436.979,720.821,439.892,716.313z"/>
		<path fill-rule="evenodd" clip-rule="evenodd" d="M546.198,717.659c6.213,7.321,1.033,17.897,2.691,25.567
			c2.07,9.57,13.072,15.981,10.766,26.913c-7.401,2.554-9.994-10.374-16.147-13.457c-4.991-0.953-5.775,2.3-10.766,1.346
			c-2.188-2.746-4.368-5.5-5.383-9.419C533.989,738.643,542.522,730.579,546.198,717.659z"/>
		<path fill-rule="evenodd" clip-rule="evenodd" d="M589.26,775.522c-1.262-5.04-19.236-4.968-25.567-9.42
			c0.416-1.826,3.369-1.116,5.383-1.346c-1.734-4.993-9.121-4.336-9.42-10.766c9.125,2.089,13.169,9.26,22.877,10.766
			c-12.121-7.168-20.57-18.006-32.297-25.567c9.661-3.806,15.409,7.897,22.877,10.766c1.609-8.807-14.742-11.26-18.84-18.84
			c7.758,0.765,11.164,5.882,20.186,5.383c1.093-13.653-19.066-6.053-20.186-17.493c14.905-2.222,29.868,6.821,32.297,21.53
			c-1.369,0.874-1.393,3.094-4.037,2.691c1.882,4.75,6.618,10.124,1.346,14.802c7.702,9.343,26.973,7.117,39.023,12.111
			c-9.323,8.143-34.305,13.486-45.752,4.037C581.981,774.995,587.573,775.047,589.26,775.522z"/>
		<path fill-rule="evenodd" clip-rule="evenodd" d="M469.496,719.005c3.554,18.191-5.226,34.936-6.729,52.48
			c-2.739-1.298-2.906-5.168-2.691-9.42c-6.016,2.059,1.186,17.334-6.729,17.494c0.81-12.647-1.675-28.589,1.346-39.024
			c3.088,2.743,0.487,11.175,1.346,16.147c3.452-0.137,2.163-5.014,4.037-6.728c1.826,0.416,1.116,3.369,1.346,5.382
			c2.499-6.737,4.856-19.898,2.691-26.913c-4.219,0.267-0.168,8.804-5.383,8.074c-2.493-2.889-0.908-9.857-1.346-14.803
			C460.378,719.755,463.874,718.316,469.496,719.005z"/>
		<path fill-rule="evenodd" clip-rule="evenodd" d="M512.558,719.005c14.771,4.594,9.193,34.242,0,41.715
			c-1.996-9.798,0.69-16.571,0-28.259c-2.011-4.439-1.586,4.502-5.383,2.691C507.563,728.364,509.927,723.552,512.558,719.005z"/>
		<path fill-rule="evenodd" clip-rule="evenodd" d="M299.942,728.424c14.54,15.204,5.489,49.29,12.11,69.975
			C304.766,779.873,294.666,750.63,299.942,728.424z"/>
		<path fill-rule="evenodd" clip-rule="evenodd" d="M235.35,736.498c6.88,12.408,12.884,25.691,20.186,37.679
			c14.851,5.334,19.613,20.757,32.296,28.259c-0.886,4.03-2.877-1.287-5.383,0c6.167,11.327,18.322,16.666,21.53,30.95
			c-10.468-16.445-31.426-22.4-43.062-37.679c6.811-0.979,7.97,3.693,13.457,4.037c-1.386-12.52-13.493-14.316-22.876-18.839
			C247.317,764.901,238.913,753.12,235.35,736.498z"/>
		<path fill-rule="evenodd" clip-rule="evenodd" d="M340.312,737.844c3.477,17.463-7.168,31.456-1.346,45.753
			c-9.77-8.165-11.646-29.91-10.765-44.407C334.048,739.385,335.711,735.405,340.312,737.844z"/>
		<path fill-rule="evenodd" clip-rule="evenodd" d="M414.323,744.572c4.911-0.874,7.168,0.906,9.42,2.691
			c-1.66,9.74-10.452,18.898-18.84,17.493C407.573,757.559,413.349,753.465,414.323,744.572z"/>
		<path fill-rule="evenodd" clip-rule="evenodd" d="M575.804,806.473c-12-12.671-23.022-26.318-37.679-36.333
			c-2.91,1.127-4.59,3.484-9.42,2.691c9.568,7.477,20.331,13.76,24.222,26.913c-7.295-5.264-12.435-12.684-18.839-18.839
			c-17.572-4.997-61.515-5.476-57.864-26.914c0.704-4.13,4.73-8.778,9.42-6.728c4.653,1.626,5.777,6.781,6.729,12.11
			c7.885,9.698,29.115,10.933,36.333,1.346C555.544,764.832,563.596,787.729,575.804,806.473z"/>
		<path fill-rule="evenodd" clip-rule="evenodd" d="M445.273,749.955c-1.309,13.045-2.517,26.19-14.802,28.259
			c-3.033-6.4,4.793-9.351,6.729-14.803c0.417-5.352-3.109-6.76-2.691-12.11C438.193,748.336,441.147,746.304,445.273,749.955z"/>
		<path fill-rule="evenodd" clip-rule="evenodd" d="M637.704,747.264c3.578,3.458-2.589,1.924-2.691,5.383
			c18.981-1.04,29.202,6.682,43.062,10.765c-4.125-7.985-15.166-9.056-21.53-14.802c17.122,3.964,37.021,16.802,47.098,32.296
			c-1.818,1.321-2.689,3.59-4.037,5.383c-5.387-0.444-7.998-3.665-12.111-5.383c1.36-3.789,5.716,0.371,8.074,0
			c-11.336-21.099-41.312-3.019-57.863-16.148c4.334-3.506,10.948,5.214,16.148,1.346c-8.329-20.821-53.545,7.216-65.938-12.111
			C601.508,751.983,622.415,753.931,637.704,747.264z"/>
		<path fill-rule="evenodd" clip-rule="evenodd" d="M320.127,788.979c1.191,14.066,16.628,25.529,17.493,44.406
			c-19.592-2.89-30.008-26.469-39.023-44.406c7.549,8.149,11.39,20.009,22.876,24.222c-2.537-9.584-9.099-26.778-10.766-41.716
			c4.312-2.464,6.951,8.259,10.766,10.766c2.52-10.164-3.563-23.336-8.074-30.95c18.477,4.019,12.012,37.052,20.185,56.518
			C326.758,808.949,323.722,795.481,320.127,788.979z"/>
		<path fill-rule="evenodd" clip-rule="evenodd" d="M427.78,749.955c2.372,1.216,4.167,3.01,5.383,5.382
			c0.347,10.013-9.793,15.889-14.803,16.148C421.448,764.256,424.786,757.277,427.78,749.955z"/>
		<path fill-rule="evenodd" clip-rule="evenodd" d="M616.173,763.411c3.68-2.713,15.973-2.566,14.803,4.037
			C624.514,767.631,619.697,766.167,616.173,763.411z"/>
		<path fill-rule="evenodd" clip-rule="evenodd" d="M344.349,768.794c12.528,5.317,31.59,0.837,33.642,18.84
			c-2.813,0.774-3.841,3.336-8.073,2.691c-0.982,5.354-0.982,5.409,0,10.765C359.667,792.052,352.79,779.642,344.349,768.794z"/>
		<path fill-rule="evenodd" clip-rule="evenodd" d="M628.284,771.485c6.481,0.268,24.572,0.531,26.914,9.42
			c-11.74,0.041-18.454-2.36-26.914,0c17.901,5.768,44.806-0.098,59.209,13.456c-4.681,2.39-11.423-4.688-17.493-5.382
			c0.843,5.906,17.481,7.622,17.493,18.839c-9.943-4.612-16.707-17.221-32.295-20.185c-18.166-3.454-40.718,1.486-57.864-2.691
			c10.26-5.439,27.071-4.328,37.679-9.42C633.788,773.158,630.298,773.061,628.284,771.485z"/>
		<path fill-rule="evenodd" clip-rule="evenodd" d="M497.755,786.288c-12.007,0.344-21.135-2.19-24.222-10.766
			C479.57,766.841,497.521,776.249,497.755,786.288z"/>
		<path fill-rule="evenodd" clip-rule="evenodd" d="M695.567,795.707c-10.027-8.437-24.583-7.915-29.604-18.839
			C679.335,774.412,690.148,785.764,695.567,795.707z"/>
		<path fill-rule="evenodd" clip-rule="evenodd" d="M439.892,794.361c1.924,5.253,9.205,5.149,8.073,13.457
			c-12.19-2.163-18.957-9.751-20.185-22.876C434.781,775.745,447.941,786.346,439.892,794.361z"/>
		<path fill-rule="evenodd" clip-rule="evenodd" d="M355.114,838.769c-10.676-14.021-18.603-26.554-21.531-45.753
			C347.541,795.27,359.743,817.911,355.114,838.769z"/>
		<path fill-rule="evenodd" clip-rule="evenodd" d="M665.963,795.707c6.376,4.39,10.813,10.718,14.803,17.494
			c-5.321,3.914-7.842-6.467-12.111-8.074c2.235,6.736,5.583,12.358,6.729,20.185c-6.12-2.852-7.371-10.571-9.42-17.493
			c-14.15,0.245-15.12-12.69-28.259-13.457C647.318,788.233,659.413,798.775,665.963,795.707z"/>
		<path fill-rule="evenodd" clip-rule="evenodd" fill="#FFFFFF" d="M517.939,795.707c2.739,1.298,2.906,5.168,2.691,9.42
			c18.68,3.805,38.721,13.236,34.987,34.987c-7.041-15.835-14.45-31.303-39.024-29.604
			C518.204,806.737,518.074,801.225,517.939,795.707z"/>
		<path fill-rule="evenodd" clip-rule="evenodd" d="M534.088,883.176c-21.888-5.474-38.401-16.323-48.444-33.642
			c6.501,1.143,12.127,14.772,24.223,14.802c-4.541-7.133-15.13-19.85-18.84-32.296c-14.815-2.229-17.445-16.645-21.53-29.604
			c21.366,1.116,33.247,23.23,41.716,41.716C504.156,866.72,538.093,859.241,534.088,883.176z"/>
		<path fill-rule="evenodd" clip-rule="evenodd" d="M645.778,807.818c9.935-0.501,21.836,8.654,22.876,21.53
			C654.236,828.965,657.84,810.559,645.778,807.818z"/>
		<path fill-rule="evenodd" clip-rule="evenodd" d="M299.942,814.547c13.483,2.434,13.343,17.492,20.185,29.604
			c2.897,5.13,11.457,6.344,8.074,13.457C302.292,862.131,312.562,827.31,299.942,814.547z"/>
		<path fill-rule="evenodd" clip-rule="evenodd" d="M433.163,826.657c1.346,0,2.691,0,4.037,0
			c2.587,17.149,28.27,11.204,32.296,26.914c3.117-1.817-0.253-10.122,4.037-10.766c5.733,7.716-0.138,20.485,4.036,30.95
			c-8.714-4.294-11.982-14.034-16.147-22.876C449.576,845.231,437.111,840.203,433.163,826.657z"/>
		<path fill-rule="evenodd" clip-rule="evenodd" d="M648.47,829.349c6.336,2.187,12.021,5.024,12.11,13.457
			C653.151,841.712,646.851,839.491,648.47,829.349z"/>
		<path fill-rule="evenodd" clip-rule="evenodd" d="M361.843,837.423c9.113,5.092,19.275,1.15,22.876,10.766
			c-8.172,3.742-17.846-1.604-24.222-4.037C359.385,840.348,362.394,840.665,361.843,837.423z"/>
		<path fill-rule="evenodd" clip-rule="evenodd" d="M326.855,840.114c6.453,0.724,4.806,9.548,9.419,12.111
			c3.368,0.228,4.213-2.067,5.383-4.037c2.749,1.288,5.325,2.749,8.074,4.037c0.43,5.363,0.074,9.941-2.691,12.11
			C336.535,860.039,327.971,853.802,326.855,840.114z"/>
		<path fill-rule="evenodd" clip-rule="evenodd" d="M343.003,840.114c4.948,0.884,6.701,4.961,9.42,8.074
			c3.665-4.902,11.225-0.296,14.803,2.691C361.945,865.224,345.182,849.304,343.003,840.114z"/>
		<path fill-rule="evenodd" clip-rule="evenodd" d="M521.977,857.608c-5.093-0.739-7.783-3.879-8.073-9.42
			C517.685,845.722,521.99,852.036,521.977,857.608z"/>
		<path fill-rule="evenodd" clip-rule="evenodd" d="M644.433,856.263c-0.65,6.685-10.149,3.263-14.803,2.691
			C630.375,853.589,641.212,851.176,644.433,856.263z"/>
		<path fill-rule="evenodd" clip-rule="evenodd" d="M481.606,857.608c8.54,1.328,13.822,5.914,12.111,17.493
			c-3.159-0.429-5.051-2.126-9.42-1.346C483.078,869.036,478.161,862.722,481.606,857.608z"/>
		<path fill-rule="evenodd" clip-rule="evenodd" d="M499.101,872.41c8.406,1.014,13.62,5.219,14.803,13.457
			c-3.619-0.927-2.602,2.781-4.037,4.037c-5.016,0.081-8.512-1.357-12.111-2.691C497.62,881.696,497.49,876.183,499.101,872.41z"/>
		<path fill-rule="evenodd" clip-rule="evenodd" d="M539.471,872.41c3.766,1.425,5.641,9.524,4.037,12.111
			c-3.675-1.708-5.366-5.4-8.074-8.074C535.021,873.344,539.321,874.952,539.471,872.41z"/>
		<path fill-rule="evenodd" clip-rule="evenodd" d="M392.793,879.139c-0.145,17.853-26.799,27.854-22.876,49.79
			c2.758-2.176,3.393-6.476,5.382-9.42c3.372,16.588-17.511,27.065-12.11,45.753c-4.99,0.953-5.775-2.3-10.766-1.346
			c4.146-4.819-1.146-8.817-6.729-8.074c2.423-7.446,11.507-8.229,14.803-14.803c-14.023-3.245-13.045,20.14-28.26,20.186
			c1.037-6.67-0.032-7.129,0-14.803c-10.253-3.655-16.896,5.875-24.222,9.42c10.683-24.305,29.622-40.353,52.481-52.481
			c-2.844,8.819-12.209,11.116-20.186,14.803c1.36,3.789,5.716-0.371,8.074,0c-3.41,7.804-13.313,9.114-16.148,17.493
			c-0.877,5.364,5.117,3.855,9.42,4.037c0.33,5.713-3.52,7.246-2.691,13.457c9.86-9.876,9.571-29.901,21.531-37.679
			c-3.351,5.319-4.733,10.336-1.346,16.148c9.144-6.557,7.973-23.426,17.493-29.605c-4.605-2.757-7.457,7.754-13.456,8.074
			C371.296,898.012,386.562,893.093,392.793,879.139z"/>
		<path fill-rule="evenodd" clip-rule="evenodd" d="M524.668,883.176c6.248,1.724,9.698,14.803,4.037,20.185
			c-5.241-1.936-9.235-5.118-12.111-9.419C517.722,888.788,519.059,883.846,524.668,883.176z"/>
		<path fill-rule="evenodd" clip-rule="evenodd" d="M453.348,888.559c-2.673,4.952-6.462,8.788-9.42,13.456
			c3.461,4.182,3.764,5.406,2.691,12.111c-3.647,1.669-3.349,5.194-8.073,2.691c-1.094,6.083-2.293,12.061-4.037,17.493
			c-4.006-0.48-6.828-2.143-9.42-4.036c0-4.486,0-8.972,0-13.457c4.41,2.188,5.145-0.304,10.766,0
			C436.099,903.484,445.36,885.22,453.348,888.559z"/>
		<path fill-rule="evenodd" clip-rule="evenodd" d="M469.496,888.559c-11.303,8.883-15.373,24.997-22.877,37.679
			c-2.406-4.886,4.24-11.627,6.729-20.186C456.233,896.13,455.519,879.364,469.496,888.559z"/>
		<path fill-rule="evenodd" clip-rule="evenodd" d="M538.125,888.559c7.014,4.823,17.014,13.25,13.456,24.222
			C545.796,906.006,539.526,899.716,538.125,888.559z"/>
		<path fill-rule="evenodd" clip-rule="evenodd" d="M478.915,889.904c5.994,6.717-6.695,17.323-13.456,20.185
			c1.321,3.771,3.591-1.954,5.383,1.346c0.488,8.144-8.006,15.4-13.457,9.42c1.43-8.864,3.981-10.658,4.037-18.84
			C469.97,900.694,475.907,896.764,478.915,889.904z"/>
		<path fill-rule="evenodd" clip-rule="evenodd" d="M577.149,892.596c5.904,2.169,8.59,7.558,13.456,10.765
			c-0.976,4.582-7.556,8.622-10.765,6.729C578.74,903.396,582.589,899.014,577.149,892.596z"/>
		<path fill-rule="evenodd" clip-rule="evenodd" d="M492.372,895.287c16.581-4.459,27.782,8.094,39.024,13.456
			c13.184-3.289,22.036,8.119,26.913,17.494c-1.564-0.219-2.395,0.297-2.691,1.346c-4.162,0.125-4.01-4.064-4.037-8.074
			c-14.299-4.762-34.57-15.452-45.752-1.346c14.116-3.664,33.153-1.3,43.061,9.42c-8.129,4.503-11.01-7.802-21.53-5.383
			c3.803,4.72,9.411,7.635,16.148,9.42c-6.231,3.637-12.265,7.472-20.186,9.419c-1.259-4.572-1.8-9.862-2.691-14.802
			c5.189,1.09,1.779,10.779,6.729,12.11c7.586-4.447-3.245-8.95-1.346-16.147c-15.257-1.801-17.079,9.834-24.222,16.147
			c2.281,2.653,6.781,3.087,5.383,9.42c-7.324,1.198-11.763,5.283-20.186,5.383c-0.013-4.191-3.183-8.77,0-12.111
			c-0.15-3.438-4.506-2.671-8.074-2.691c1.198-10.913,7.687-16.535,12.111-24.222c2.972,2.195-1.878,7.9-2.691,10.766
			c5.279-0.131,10.869-11.539,16.148-16.148c-1.432-3.054-8.459-0.512-12.111-1.346c5.236-2.389,10.623-4.628,18.84-4.037
			C506.921,895.766,499.387,898.653,492.372,895.287z"/>
		<path fill-rule="evenodd" clip-rule="evenodd" d="M586.569,895.287c4.361-1.332,11.913,0.358,18.839-1.346
			c-0.98,3.056-4.05,4.024-6.729,5.382C593.067,899.554,592.041,895.197,586.569,895.287z"/>
		<path fill-rule="evenodd" clip-rule="evenodd" d="M485.644,897.978c6.467,1.925-5.273,6.678-4.037,12.111
			c5.546,1.061,2.528-6.442,8.074-5.383c-2.748,11.157-6.681,21.13-18.839,22.877C472.581,913.627,477.921,907.821,485.644,897.978z
			"/>
		<path fill-rule="evenodd" clip-rule="evenodd" d="M565.038,904.706c5.63,1.548,11.306,3.049,10.766,10.766
			c-4.569,1.711-7.782,4.777-12.111,6.729c-4.725,0.239-4.426-4.546-8.074-5.383c3.184-3.857,7.623,1.338,10.766-1.346
			C567.418,910.4,564.742,909.039,565.038,904.706z"/>
		<path fill-rule="evenodd" clip-rule="evenodd" d="M392.793,906.052c2.735,5.916-4.989,12.924-6.729,18.84
			c0.886,4.03,2.876-1.287,5.383,0c-4.925,5.841-7.839,13.692-17.494,14.802C378.088,926.334,387.076,917.829,392.793,906.052z"/>
		<path fill-rule="evenodd" clip-rule="evenodd" d="M348.386,927.583c-0.62,5.211-3.482,8.18-9.42,8.073
			C340.601,931.46,341.483,926.512,348.386,927.583z"/>
		<path fill-rule="evenodd" clip-rule="evenodd" d="M439.892,928.929c2.604,8.907-4.803,19.402-9.42,25.567
			c-6.759-0.625-12.195,2.562-14.803,9.42c-2.037-7.893,5.913-17.394,8.074-25.568c3.789,1.36-0.371,5.716,0,8.074
			C430.25,941.715,437.036,937.287,439.892,928.929z"/>
		<path fill-rule="evenodd" clip-rule="evenodd" d="M516.594,928.929c1.725,3.833,4.923,11.255,2.691,14.802
			C515.634,941.824,513.978,932.86,516.594,928.929z"/>
		<path fill-rule="evenodd" clip-rule="evenodd" d="M458.73,930.274c3.433,2.26,1.272,10.282,4.037,16.147
			c-1.562,1.13-3.608,1.775-6.729,1.346C451.882,943.371,455.104,934.435,458.73,930.274z"/>
		<path fill-rule="evenodd" clip-rule="evenodd" d="M469.496,930.274c6.668,1.19,0.011,15.82,2.691,17.493
			c3.368,0.229,4.212-2.067,5.382-4.037c4.073,3.297-1.02,8.759,0,13.457c-4.368-0.78-6.26,0.916-9.419,1.346
			C464.205,948.976,467.607,940.491,469.496,930.274z"/>
		<path fill-rule="evenodd" clip-rule="evenodd" d="M443.928,931.62c8.172,2.61,3.842,24.843,9.42,25.567
			c3.719,2.942-3.538,6.24-8.074,5.383c-0.446-5.381,2.399-7.47,1.346-13.457c-3.182,1.753-2.594,7.273-4.036,10.766
			C440.675,950.645,444.007,941.734,443.928,931.62z"/>
		<path fill-rule="evenodd" clip-rule="evenodd" d="M402.213,943.73c2.044,9.688-4.177,22.723-16.148,22.876
			C384.49,952.025,394.786,949.312,402.213,943.73z"/>
		<path fill-rule="evenodd" clip-rule="evenodd" d="M373.953,945.076c1.354,5.369,0.55,19.076-9.419,17.494
			C365.346,954.411,365.771,945.864,373.953,945.076z"/>
		<path fill-rule="evenodd" clip-rule="evenodd" d="M412.978,945.076c2.571,4.158-3.064,22.773-14.802,21.53
			C404.396,960.716,407.859,952.069,412.978,945.076z"/>
		<path fill-rule="evenodd" clip-rule="evenodd" d="M325.51,955.842c1.097,5.032-8.296,2.49-9.42,1.346
			C316.632,954.91,323.985,952.695,325.51,955.842z"/>
		<path fill-rule="evenodd" clip-rule="evenodd" d="M460.076,954.496c2.367,0.324,3.067,2.315,2.691,5.383c-1.794,0-3.589,0-5.383,0
			C458.085,957.888,459.376,956.487,460.076,954.496z"/>
		<path fill-rule="evenodd" clip-rule="evenodd" d="M377.99,957.188c2.371,3.376,2.224,0.944,5.383,2.691c0,1.794,0,3.588,0,5.383
			c-1.796,1.92-7.624,1.92-9.42,0C373.894,961.164,376.795,960.028,377.99,957.188z"/>
		<path fill-rule="evenodd" clip-rule="evenodd" d="M423.743,957.188c1.746,0.543,1.174,10.038-4.037,8.074
			C420.994,962.513,422.455,959.937,423.743,957.188z"/>
		<path fill-rule="evenodd" clip-rule="evenodd" d="M435.854,957.188c3.943,1.14-0.805,4.332,0,6.729c-2.243,0-4.486,0-6.729,0
			C430.238,960.542,433.84,959.659,435.854,957.188z"/>
		<path fill-rule="evenodd" clip-rule="evenodd" d="M496.409,283.009c6.012,12.868-14.237,22.449-24.222,28.259
			C477.351,298.938,496.291,300.384,496.409,283.009z"/>
		<path fill-rule="evenodd" clip-rule="evenodd" d="M544.853,301.848c11.613,5.48,22.332,16.727,21.531,28.259
			c-1.116,16.083-22.991,20.695-29.604,32.296c0,2.691,0,5.383,0,8.074c7.19-2.229,7.864-10.975,16.147-12.111
			c3.269,2.066-2.886,5.979-2.691,9.42c9.039,0.052,20.419-9.174,28.26-14.802c-6.936,9.313-12.994,26.342-24.223,26.913
			c2.088-6.435,9.482-7.563,12.111-13.457c-6.368,0.829-16.368,9.633-21.531,16.148c-2.358-1.229-4.675-2.502-4.036-6.729
			c-7.923,0.601-10.223,6.822-17.494,8.074c-0.546-6.826,4.7-7.86,6.729-12.111c-0.597-24.313,29.614-18.055,30.95-36.333
			C561.981,322.067,544.878,318.032,544.853,301.848z"/>
		<path fill-rule="evenodd" clip-rule="evenodd" d="M585.224,335.489c8.829,0.704,19.664,23.527,13.456,34.988
			C590.492,362.438,587.144,341.6,585.224,335.489z"/>
		<path fill-rule="evenodd" clip-rule="evenodd" d="M445.273,359.711c0.482,5.445-11.35,10.159-14.802,16.148
			c9.449-2.224,22.008-12.971,33.642-17.494c-12.508,18.443-41.39,20.511-43.062,49.79c6.688-0.777,12.675-15.638,13.457-13.457
			c-2.903,6.068-4.169,13.774-9.42,17.494c-0.774,2.366,1.627,7.906-1.346,8.074c1.393,2.595,5.336-3.529,6.729-5.383
			c0.075,4.592-6.843,13.768-13.457,16.148c-0.857-2.936,3.814-4.281-1.346-4.037c0.321-5.51,4.571-7.091,5.383-12.111
			c-7.262,2.172-12.115,18.375-20.185,24.222c-0.296-4.333,2.38-5.694,1.346-10.766c-4.766-0.728-3.31,4.766-8.074,4.037
			c1.646-5.825,1.151-6.738-4.037-8.074c1.224-6.402,8.032-7.219,9.42-13.457c-3.688-0.508-10.391,7.522-13.457,12.111
			c-3.212-5.947,5.055-11.957,6.729-17.494c-6.661,2.758-12.323,6.516-16.148,12.111c1.278-15.326,26.293-18.558,26.913-39.024
			c6.457,9.627,3.4,26.141-1.345,34.987c12.314-0.057,18.347-22.951,29.604-29.604c-4.674-3.708-6.235,7.17-12.111,6.729
			C425.421,377.537,432.683,365.959,445.273,359.711z"/>
		<path fill-rule="evenodd" clip-rule="evenodd" d="M345.694,363.749c-0.548,9.333-13.185,18.204-21.53,24.222
			c-5.942,15.588-18.778,24.283-29.604,34.987c-2.984,0.741-1.916-2.57-4.037-2.691c-20.053,11.357-32.71,27.702-40.37,48.444
			c12.288-7.068,21.089-29.098,32.296-41.716c4.992,0.995-0.102,6.718,0,10.766c4.515-8.734,12.717-7.488,20.185-12.111
			c11.983-7.418,14.292-25.915,30.95-28.259c8.727,13.479-3.174,30.911-9.419,41.716c1.959-11.498,4.759-22.154,8.073-32.296
			c-6.105-0.724-8.061,2.705-12.11,4.037c-9.656,20.846-35.959,25.044-48.444,43.062c-3.521-3.176,3.687-7.002,4.037-10.766
			c-7.011,5.997-11.801,14.216-16.147,22.876c13.916-6.722,28.517-24.408,47.098-30.95c0.816,4.441-9.581,9.231-14.802,12.111
			c-13.963,29.02-24.971,43.926-68.629,40.37c20.475-8.839,48.796-2.088,53.826-26.913c-19.334,19.368-51.361,14.991-69.975-6.729
			c-3.315-3.869-16.529-0.743-22.876-1.346c-20.551-1.953-34.221-11.859-56.519-6.729c-6.605,19.07,12.131,23.496,17.494,34.987
			c-5.868-6.511-29.423-15.228-26.913-30.95c4-25.064,53.379,2.561,76.702-5.383c4.754-2.872,3.578-11.672,12.111-10.765
			c2.486,8.045-5.076,11.102-1.346,16.148c14.588-13.222,37.225-18.396,45.753-37.679c6.547-2.424,10.809-7.133,18.839-8.074
			c-23.023,11.515-29.622,39.455-41.715,61.9c6.81-4.473,11.795-16.195,21.53-13.457c0.929,9.899-6.853,11.089-12.111,14.802
			c-0.963,3.654,6.346-0.962,5.383,2.691c8.076-5.38,10.1-16.814,13.457-26.914c10.92-5.114,13.161-18.567,22.876-25.567
			c10.422-7.51,26.618-8.17,32.296-21.531c2.396,0.986,0.194,2.447,0,4.037c7.823-6.979,13.624-15.98,21.53-22.876
			c-12.804,5.145-28.532,19.01-40.369,29.604c-13.574-0.117-20.959,5.955-26.914,13.457c2.665-16.061,20.012-17.168,30.951-24.222
			c11.964-7.715,21.319-19.686,33.642-25.567C338.753,371.161,342.229,367.46,345.694,363.749z"/>
		<path fill-rule="evenodd" clip-rule="evenodd" d="M497.755,390.662c4.319,0.123,10.193-1.059,14.803-4.037
			c-2.748,2.635-2.819,7.946-8.074,8.074c-0.406,3.545,1.863,4.417,5.383,4.037c-3.529,4.137-22.892-2.036-25.568,6.729
			c11.478,4.47,23.713,10.592,37.679,5.382c-6.428,9.271-26.323,5.076-33.642,13.457c-3.887,17.644-20.271,22.791-17.493,47.098
			c0.91,2.944,4.472-2.55,5.382-4.037c-1.092,9.3-15.087,41.054,1.346,48.444c4.181-1.202,1.353-9.413,4.037-12.111
			c-2.491-4.114-2.016,5.931-6.729,4.037c3.023-15.817,12.932-24.748,17.494-39.024c-0.476-2.109-2.369,1.178-2.691-1.346
			c1.309-5.868,4.664-9.689,6.729-14.802c1.461,0.333,0.913,2.676,2.691,2.691c3.404-3.931,0.455-12.957,0-17.494
			c-5.276-1.239-0.977,7.098-4.037,8.074c-6.124-4.227,1.094-15.065,1.346-21.53c3.26,0.777,2.992,5.081,4.037,8.074
			c1.93-1.659,2.549-4.627,2.691-8.074c4.678,6.482,1.964,24.111,0,34.987c-2.674,2.241-1.711-0.122-5.383,0
			c-1.489,11.322-3.357,20.651-1.346,32.296c-3.634-0.403-2.413-5.661-5.383-6.729c-8.629,8.064-9.223,31.017-8.074,44.407
			c4.024-4.499,4.804-12.242,5.383-20.185c3.802,14.131-3.138,29.148-8.074,39.024c-2.456-7.841,2.707-13.724,0-24.222
			c-2.393-2.513-3.42,1.093-8.073,0c-4.438-8.482-6.951-21.75-5.383-32.296c-0.911-6.211-4.472,2.059-5.383-1.346
			c0.755-9.933,5.532-13.779,2.691-24.222c-3.045-2.955-5.007,6.589-9.42,6.729c-0.136-4.172,1.646-6.429,2.691-9.42
			c-14.617,3.325-23.113,12.771-29.604,24.222c8.16,0.983,7.927-6.427,12.111-9.42c-2.256,27.226,15.385,43.229,9.419,65.938
			c-0.615-20.019-14.316-26.95-17.493-44.407c-0.187-4.299-6.004-2.967-8.074-5.382c-10.55,18.916,11.153,28.104,13.457,43.061
			c2.886-15.008-14.363-21.513-13.457-39.024c8.351,17.709,25.252,33.9,20.185,60.555c-12.332-11.441-10.897-36.649-25.567-45.753
			c-2.393-14.331,0.47-22.536,6.729-30.95c-1.229-3.659-2.502,3.585-6.729,1.346c1.938-9.724,7.472-15.854,14.803-20.185
			c-0.45-15.251,10.287-19.317,17.493-26.913c-1.496,5.253-11.44,13.663-12.11,24.222c3.019,2.566,24.401-10.776,18.839-4.037
			c-11.846,5.199-26.812,7.278-30.95,20.185c5.831-12.145,44.799-16.434,48.443-34.988c2.707-13.777-8.767-22.737-22.876-17.493
			c-9.226,3.429-14.929,17.868-22.876,20.185c2.94,2.852,7.824-3.771,10.766-5.382c0.948,4.574-10.172,8.64-14.803,12.111
			c-3.395-10.591,13.706-12.295,17.494-20.185c-20.072,2.356-19.871,24.985-43.062,24.222c3.981,8.831,13.393-0.826,22.876,1.346
			c-10.805,12.538-32.878-2.188-40.37,12.111c8.853,0.644,17.044-5.988,21.53,1.346c-0.18,6.215-11.155,4.27-13.456,1.346
			c-8.626,2.14-12.888,8.643-21.53,10.765c3.383,9.882,4.487,18.684,2.691,30.95c-4.66-6.554-5.949-16.479-9.42-24.222
			c3.883,0.602,3.181,5.79,6.729,6.729c-1.188-8.232-7.501-11.339-14.803-13.457c18.105,0.163,18.316-17.568,29.604-24.222
			c-15.62,1.879-25.884,20.761-45.753,22.876c1.715-18.022,21.962-17.511,24.223-34.987c4.371-0.113,8.277-0.693,10.766-2.691
			c-1.138-3.491-5.903,2.589-8.074-1.346c-1.092-15.893,13.495-16.109,17.493-26.913c2.694,3.661-3.249,10.156-4.037,14.802
			c2.765,2.674,8.545-3.051,13.457-2.691c-2.032,6.491-9.812,7.232-9.42,16.148c5.446-3.076,11.801-5.244,16.148-9.419
			c3.491,1.137-2.589,5.903,1.346,8.074c16.436-7.147,27.183-12.89,37.679-26.913c-6.348-2.999,6.318-16.441,9.419-22.876
			c-2.249,9.58-5.817,24.703-9.419,34.987c16.15-3.137,19.068-19.507,36.333-21.53c-2.65-8.754-7.981,0.08-13.457,0
			c5.955-11.539,14.983-20.004,24.222-28.259c-9.141,1.176-9.672,10.961-20.185,10.766c-1.813-10.881,12.125-23.288,21.53-22.876
			c-2.014,2.472-5.616,3.355-6.729,6.728c7.581,4.139,17.725-2.05,28.26-5.382c-5.046,4.842-12.809,14.079-20.186,12.111
			c-5.276,5.489-10.008,11.522-13.456,18.839c5.943-1.253,12.954-13.047,21.53-16.148c-0.611,5.668-6.364,6.195-8.074,10.765
			c10.811-1.749,10.763-14.356,22.877-14.802C508.231,384.094,501.366,385.751,497.755,390.662z M458.73,417.575
			c15.324-5.636,20.184,6.494,24.222,16.148c-2.203-11.623,3.613-15.226,6.729-21.531
			C480.937,408.112,460.884,407.169,458.73,417.575z"/>
		<path fill-rule="evenodd" clip-rule="evenodd" d="M578.495,394.699c1.527,0.256,0.747,1.35,0,1.346
			c0.304,1.714,4.016,1.764,4.037,0c3.615,6.352-10.843,6.17-12.111,12.111c15.07,4.953,35.608-7.27,36.333-25.567
			c4.289,24.479-18.728,33.301-41.716,34.987C560.368,406.778,572.246,401.837,578.495,394.699z"/>
		<path fill-rule="evenodd" clip-rule="evenodd" d="M635.013,444.488c-1.73-3.763-2.782,4.239-6.729,2.691c0-3.14,0-6.28,0-9.419
			c-6.769,0.408-10.029,4.324-16.147,5.382c14.192-11.375,34.275-16.859,39.024-37.678c3.09,10.287-6.295,19.706-10.766,26.913
			c8.782-3.099,0.182,6.795-1.346,9.419c17.194-1.046,30.368,1.928,47.099,1.346c-9.888,4.018-23.211,4.601-33.642,8.074
			c2.539-2.843,6.101-4.664,9.419-6.729c-10.697-3.054-24.071,2.828-30.95,8.074C629.091,456.181,631.704,444.301,635.013,444.488z"
			/>
		<path fill-rule="evenodd" clip-rule="evenodd" d="M162.684,452.562c16.801,6.977,57.744,1.462,59.21,28.259
			c-3.939,0.351-4.135-3.042-8.074-2.691c1.354,12.104,12.912,14.001,12.111,28.259c-6.465-13.721-16.204-24.167-22.877-37.679
			c5.191,0.191,6.219,4.547,12.111,4.037C207.273,456.417,172.831,466.637,162.684,452.562z"/>
		<path fill-rule="evenodd" clip-rule="evenodd" d="M629.63,456.6c5.572-0.943-1.404,4.718,2.691,6.728
			c16.5-17.142,54.707-2.404,49.79,21.531c-5.207,1.17-4.787-3.287-8.074-4.037c-0.98-3.671,2.674-2.708,2.691-5.382
			c-4.094-3.532-13.88-1.371-18.84-4.037c2.562-4.347,12.053,4.235,13.457-2.691c-16.251-11.602-34.049-1.404-47.099,4.037
			C624.677,468.342,628.791,464.067,629.63,456.6z"/>
		<path fill-rule="evenodd" clip-rule="evenodd" d="M176.141,503.698c-1.993-9.515-11.311-6.389-17.493-10.765
			c-9.508-6.729-10.992-22.472-22.877-26.914c14.87,0.388,15.88,26.279,34.987,26.914c3.019-3.985-6.737-6.667-6.729-12.111
			c2.744,0.396,2.639,3.641,5.383,4.037c2.521-2.562,0.147-3.381,0-6.729c5.712,3.708,4.928,13.912,9.42,18.84
			c3.085-2.462-0.991-7.417-2.691-12.111c6.889,5.67,15.215,9.904,20.185,17.494c-6.264,0.433-7.488-4.173-12.11-5.382
			c7.135,24.294,43.219,26.714,44.407,52.48c-11.627-7.662-14.141-24.436-28.26-29.604c-3.047,4.716,6.434,6.466,4.037,14.802
			c-7.608-27.378-52.165-17.809-57.863-47.098C150.584,493.384,161.114,504.36,176.141,503.698z"/>
		<path fill-rule="evenodd" clip-rule="evenodd" d="M546.198,506.389c3.818,5.194-5.196,8.498-1.346,14.802
			c10.665-0.549,9.022-13.406,12.111-21.531c3.273,4.68,0.902,15.211-1.346,18.839c4.014,2.165,6.898-8.312,8.074-13.457
			c3.463,13.444-5.703,32.728-14.803,33.642c-2.812-3.208,3.018-5.932,4.037-9.419c-8.188-3.673-14.384,6.227-17.493,12.111
			C537.194,533.255,540.16,514.714,546.198,506.389z"/>
		<path fill-rule="evenodd" clip-rule="evenodd" d="M508.521,611.351c2.066,7.475-11.622,10.787-13.457,18.839
			c2.458,1.492,8.721-4.685,10.766-8.074c2.931,2.586-4.369,6.319-5.383,9.42c8.763-1.554,11.552-9.081,16.147-14.802
			c0.011,11.235-15.352,18.729-26.913,22.876c-2.362-1.16,1.859-7.007,2.691-9.42c-8.898,0.97-8.846,10.89-21.53,8.074
			c-8.908-6.733-4.369-25.35-9.42-39.024c-4.367-11.825-14.844-13.494-17.494-25.568c0.399,9.582,7.788,30.644,2.691,45.752
			c-4.243-5.624-4.126-15.61-8.073-21.53c-0.516,17.426-11.675,24.21-13.457,40.37c-17.863-15.118,15.818-25.033,12.111-47.099
			c5.139,1.141,4.968,7.592,6.728,12.111c1.507-23.938-12.904-43.61-17.493-65.938c6.263,25.145,36.877,45.255,40.37,74.012
			c0.492,4.055-1.407,9.444,0,13.457C474.648,647.168,498.681,620.766,508.521,611.351z"/>
		<path fill-rule="evenodd" clip-rule="evenodd" d="M282.448,646.338c-10.127-6.877-18.713-24.563-34.987-13.456
			c-4.929-3.146-9.724-6.425-14.803-9.42c-2.242,1.795-2.09,5.983-4.036,8.074c-1.91-0.116-3.812-0.222-4.037,1.346
			c-18.348-1.838-8.649-31.721-24.223-36.333c-0.508-13.397-4.475-23.336-6.729-34.987c7.043,5.965,8.696,17.32,13.457,25.567
			c14.808-0.005,22.906,6.699,32.296,12.111c-5.778,3.314-16.61-5.722-29.604-1.346c1.227,5.075,10.14,14.065,14.803,20.186
			c4.029-0.886-1.287-2.877,0-5.383c6.898,3.418,10.374,10.258,18.839,12.111c-2.275-5.815-14.853-12.944-22.876-17.494
			c8.613-0.522,20.746,7.051,26.913,13.457c0.575-12.697-19.771-16.105-32.296-20.185c26.455-1.781,45.464,15.537,59.209,30.95
			c0-2.691,0-5.383,0-8.074c-4.461-3.84-16.231-6.588-13.457-21.53c6.439,1.953,3.345-5.627,4.037-9.42
			c4.74,5.128,3.812,15.925,8.074,21.531c1.71-10.697-5.545-24.048-12.111-30.951c0.165,4.963,2.272,20.145-8.073,21.531
			c3.534-8.079-2.771-10.612-6.729-14.803c2.955-8.707,0.333-22.991,8.074-26.913c-0.386,5.534-8.161,20.483,4.037,18.839
			c0.059-2.302-1.001-3.485-2.691-4.037C278.075,581.637,276.645,621.189,282.448,646.338z"/>
		<path fill-rule="evenodd" clip-rule="evenodd" d="M274.374,644.992c5.439,5.326,11.457,10.074,17.494,14.803
			c-4.329-9.127-8.694-18.219-10.766-29.604c1.871-5.86,4.655,0.989,6.729,2.691c4.611-3.015,3.631-11.62,5.383-17.493
			c5.532,6.221-6.472,25.306,2.691,32.295c4.223-1.584-1.089-13.723,5.383-16.147c3.159-3.279,3.012,1.501,5.382,2.691
			c4.461-0.024,1.366-7.604,4.037-9.42c3.17-0.03,3.962,2.317,8.074,1.346c0.938-7.218-4.05-8.511-8.074-10.765
			c-0.203-11.417,1.386-21.043,13.457-20.186c0.597,1.198,1.182,2.407,2.691,2.691c-5.642,23.16-4.839,42.412-26.913,52.48
			c0.774,2.814,3.336,3.842,2.69,8.074c3.798,0.209,3.373-3.804,5.383-5.383c2.869,6.495,0.168,18.979-5.383,21.531
			c-0.121-18.27-13.424-23.357-14.802-40.37c-5.73,14.717,10.509,19.085,9.42,33.642
			C289.612,660.256,279.382,655.236,274.374,644.992z"/>
		<path fill-rule="evenodd" clip-rule="evenodd" d="M399.521,744.572c2.014-6.525,13.592-15.104,20.185-21.531
			C421.442,733.316,405.665,737.695,399.521,744.572z"/>
		<path fill-rule="evenodd" clip-rule="evenodd" d="M411.632,667.869c-5.238,7.331-14.735,22.038-21.53,32.296
			C392.954,690.448,400.52,673.81,411.632,667.869z"/>
		<path fill-rule="evenodd" clip-rule="evenodd" d="M229.968,716.313c13.425,9.297,16.111,34.324,29.604,48.443
			c5.846,6.118,14.3,8.124,18.839,14.803c-0.109-1.749-2.367-19.996-2.691-21.531c9.562,2.224,4.861,12.771,6.729,18.84
			c3.037,9.871,13.589,16.573,13.457,26.913c-11.793-2.927-13.456-16.275-21.531-24.222c-3.826-3.766-10.952-5.152-14.802-9.42
			C246.208,755.326,243.146,732.164,229.968,716.313z"/>
		<path fill-rule="evenodd" clip-rule="evenodd" d="M684.803,752.646c4.889,2.307,22.3,3.7,26.913,10.765
			C702.097,762.654,691.128,760.083,684.803,752.646z"/>
		<path fill-rule="evenodd" clip-rule="evenodd" d="M679.42,753.991c2.621-3.397,6.347,3.433,9.419,4.037
			C687.165,760.479,681.967,755.123,679.42,753.991z"/>
		<path fill-rule="evenodd" clip-rule="evenodd" d="M624.247,814.547c3.568-1.946-4.94-3.006-2.691-8.074
			c20.687-2.744,24.271,11.614,34.988,18.839c-7.171-0.921-14.979-12.818-29.605-10.765c14.707,8.42,16.037,22.317,25.568,36.333
			c-10.357,0.922-22.049-8.443-37.679-6.729c-0.258,5.191,8.434,1.434,10.765,4.037c-10.313,3.557-27.057-5.211-39.023,0
			c8.335,1.568,25.174,3.762,34.986,8.074c-15.836-2.003-40.204-4.645-55.172-4.037c16.009-9.693,43.613-15.515,67.283-9.42
			c-0.474-4.461-4.03-5.838-6.729-8.074c-19.012,1.377-34.166,2.552-52.48,9.42c-8.234-10.156-4.002-32.78-13.457-41.716
			c10.805,2.652,12.37,14.544,20.186,20.186c6.234-24.184-13.816-33.727-18.84-51.136c17.356,14.939,43.847,20.746,74.012,22.876
			c-2.857,12.395-20.043,10.459-34.987,10.766c8.185-2.581,15.574-5.957,24.222-8.074c-6.663-1.637-24.947,2.129-33.642-1.346
			c-7.45,30.331,27.834,29.579,43.062,41.716c-0.672-8.315-14.074-15.519-24.222-18.839c7.263-3.192,13.927,5.784,21.53,6.728
			c-5.945-11.099-24.598-9.492-33.642-17.493C601.538,805.254,618.022,811.584,624.247,814.547z"/>
		<path fill-rule="evenodd" clip-rule="evenodd" d="M528.705,791.67c20.127,13.515,34.606,32.678,36.333,64.593
			c24.889,2.473,52.328,2.396,68.629,13.456c-4.692,16.39-30.52,11.646-43.062,20.186c5.598-6.065,13.132-10.193,24.223-10.766
			c-12.968-5.323-23.918,2.981-33.642,5.383c5.221-8.235,17.119-9.794,28.259-12.111c-14.153-6.453-32.834,3.253-36.333,16.148
			c-7.032-6.425-2.539-24.375-14.803-25.568c2.28,11.29,15.453,23.039,16.148,40.37c-7.618-4.941-5.979-19.14-13.457-24.222
			c2.384,4.847,3.674,21.594,1.346,32.296c-7.271-6.186-12.255-14.658-14.803-25.567c5.39-0.007,4.461,6.305,8.074,8.074
			c0.604-19-13.439-35-20.185-51.136c7.339,3.426,9.732,11.798,14.802,17.494c5.961-8.424-9.564-15.654-5.383-30.951
			c-8.734-6.366-16.286-5.866-30.949-5.382c-1.962-6.112-9.371-6.778-8.074-16.148c-11.453-0.657-21.844-2.379-28.26-8.074
			c0.324-2.367,2.315-3.067,5.383-2.691c-10.429-9.274-33.421,2.157-36.333-14.802c11.412-1.182,34.828-2.857,39.024,13.456
			c6.045-4.721,17.871-3.659,21.531-10.765c5.207-1.17,4.787,3.286,8.073,4.037c-1.344-4.039-4.035-6.73-8.073-8.074
			c12.686-3.445,30.946,10.122,40.369,18.839C543.72,799.943,535.79,792.687,528.705,791.67z"/>
		<path fill-rule="evenodd" clip-rule="evenodd" d="M497.755,813.201c10.789,7.606,17.474,30.966,32.296,39.024
			c1.172-9.264-13.009-14.789-18.839-21.531c7.312-3.688,28.333-3.643,28.259,10.766c-7.159-1.363-9.33-7.715-17.494-8.074
			c9.547,11.535,20.335,21.83,24.222,39.024c-8.45,0.377-7.253-8.895-12.11-12.11c-3.948,1.144,1.75,3.386,0,6.728
			c-4.351-1.032-7.042-3.724-8.074-8.073c1.082-0.713,2.185-1.404,4.037-1.346C516.862,845.229,505.153,831.37,497.755,813.201z"/>
		<path fill-rule="evenodd" clip-rule="evenodd" d="M388.756,852.226c9.716,4.188,14.32,13.49,16.147,25.567
			c7.477-1.943,9.416-9.424,13.457-14.803c-0.65,20.886-30.281,24.439-34.987,45.753c4.129,1.837,5.095-11.017,12.111-10.766
			c-4.931,7.181-7.159,17.063-17.494,18.84C384.921,895.877,413.062,873.264,388.756,852.226z"/>
		<path fill-rule="evenodd" clip-rule="evenodd" d="M262.263,681.326c3.219-6.202,2.943-15.896,8.074-20.186
			c3.186,14.858,3.268,33.525,10.766,47.099c4.052-11.654-3.344-22.208,0-33.642c6.896,14.352,25.332,41.576,9.42,57.863
			c-0.502-9.366,1.24-20.977-1.346-28.259c-5.656,11.105-3.42,29.146,1.346,40.37c-10.573,0.69-9.873-21.517-14.803-30.95
			c-7.669,31.895,25.691,34.412,24.223,64.592c-4.089-1.295-2.931-7.836-5.383-10.766c-8.866-7.282-15.048-17.248-22.877-25.567
			c-3.385-15.236,3.364-32.442,0-47.099c-11.725,6.875-3.712,32.033-6.729,44.407c-10.368-8.632-2.222-25.486-4.037-37.679
			c-1.86-12.499-11.991-21.982-21.53-22.876C230.403,654.078,262.585,661.91,262.263,681.326z"/>
		<path fill-rule="evenodd" clip-rule="evenodd" d="M334.929,787.634c20.149,3.674,42.416,16.757,55.173,32.296
			c6.97,0.863-1.62-6.411,2.691-6.729c8.686,0.733,6.14,12.699,14.802,13.456c-0.096-5.462-8.97-7.207-5.382-12.11
			c13.808,10.257,15.247,25.021,30.95,32.296c6.304-2.509-1.682-7.37-1.346-12.111c8.017-0.391,6.298,8.953,10.766,12.111
			c15.253,3.138,22.365,14.416,26.913,28.259c-10.012-3.894-13.325-14.485-29.604-12.111c16.083,1.272,29.394,24.391,43.061,13.457
			c5.472,0.809,8.942,3.617,10.766,8.074c-8.217,6.064-35.998,1.327-39.024-10.766c-13.975,7.556-15.309,27.753-30.95,33.642
			c-1.866,14.282-3.532,28.764-14.803,33.642c1.6-4.231,4.543-7.12,5.383-12.11c-2.319-1.794-7.1,5.401-9.42,8.073
			c-2.279-4.128,4.018-11.192,6.729-14.802c-1.876-2.161-6.641-1.433-8.074-4.037c2.244-7.625,4.12-15.617,6.729-22.876
			c-13.121,4.82-6.962,28.921-16.147,37.679c5.64,0.257,4.159-6.606,10.765-5.383c-8.449,7.249-12.698,18.7-25.567,21.53
			c18.015-16.974,17.56-52.415,34.987-69.975c7.752-0.771,9.896-7.149,13.457-12.111c3.436,16.901-14.359,24.21-14.803,41.716
			c7.709,0.083,6.731-8.52,8.074-14.802c4.81-6.854,11.2-12.126,13.457-21.531c3.576,3.666,0.124,11.721-1.346,14.803
			c5.198,2.018,7.473-10.439,8.074-17.494c-17.709-8.756-35.08-17.85-49.79-29.604c5.824,8.081,14.281,13.529,20.185,21.531
			c-13.17-7.469-28.609-24.316-48.443-29.605c33.371-5.109,39.948,28.229,79.395,21.531c-5.538-5.944-17.482-3.517-21.531-13.457
			c-3.469,0.324,1.848,2.315,0,5.383c-7.372-1.882-19.149-4.049-16.148-12.111c-14.362-0.888-23.288-7.213-37.678-8.074
			c1.596-6.029,15.172-0.078,18.839-4.036c-7.738-2.578-19.775-0.858-25.567-5.383C357.819,800.628,344.14,796.365,334.929,787.634z
			"/>
	</g>
</g>
<circle fill="none" stroke="#010101" stroke-width="10" stroke-miterlimit="10" cx="395.438" cy="607.75" r="355.037"/>
</svg>
